<?xml version="1.0" encoding="utf-8"?>
<!-- Generator: Adobe Illustrator 15.0.0, SVG Export Plug-In . SVG Version: 6.00 Build 0)  -->
<!DOCTYPE svg PUBLIC "-//W3C//DTD SVG 1.1//EN" "http://www.w3.org/Graphics/SVG/1.1/DTD/svg11.dtd">
<svg version="1.1" id="Camada_1" xmlns="http://www.w3.org/2000/svg" xmlns:xlink="http://www.w3.org/1999/xlink" x="0px" y="0px"
	 width="37.693px" height="37.092px" viewBox="0 0 37.693 37.092" enable-background="new 0 0 37.693 37.092" xml:space="preserve">
<g>
	<path fill="#189D0E" d="M84.732,3.345c0,10.003-8.108,18.11-18.111,18.11s-18.112-8.107-18.112-18.11s8.109-18.111,18.112-18.111
		S84.732-6.658,84.732,3.345"/>
	<path fill-rule="evenodd" clip-rule="evenodd" fill="#FFFFFF" d="M59.279,10.727c0.082-0.32,0.154-0.598,0.229-0.874
		C59.75,8.966,60,8.082,60.23,7.192c0.033-0.132,0.02-0.308-0.043-0.426c-2.253-4.295,0.07-9.491,4.798-10.6
		c4.292-1.007,8.15,1.89,8.855,5.765c0.733,4.041-1.911,7.88-5.92,8.582c-1.594,0.276-3.117,0.042-4.571-0.667
		c-0.131-0.063-0.313-0.08-0.45-0.047C60.959,10.285,59.669,10.649,59.279,10.727 M60.984,9.045c0.729-0.19,1.4-0.359,2.066-0.545
		c0.188-0.052,0.333-0.025,0.5,0.071c1.261,0.728,2.611,0.998,4.054,0.766c3.323-0.532,5.601-3.642,5.092-6.952
		c-0.527-3.433-3.745-5.735-7.146-5.111c-4.112,0.755-6.297,5.34-4.252,8.971c0.228,0.403,0.289,0.734,0.138,1.163
		C61.254,7.922,61.142,8.46,60.984,9.045"/>
	<path fill-rule="evenodd" clip-rule="evenodd" fill="#FFFFFF" d="M68.552,6.798c-1.431-0.052-3.707-1.181-5.267-3.889
		c-0.554-0.963-0.474-2.061,0.337-2.814c0.275-0.256,0.618-0.193,0.941-0.139c0.079,0.011,0.161,0.133,0.201,0.223
		c0.208,0.472,0.412,0.946,0.593,1.429c0.096,0.257-0.08,0.496-0.45,0.922c-0.118,0.134-0.142,0.261-0.05,0.416
		c0.601,1.016,1.438,1.751,2.541,2.182c0.162,0.062,0.283,0.023,0.385-0.104c0.585-0.713,0.645-0.921,0.952-0.776
		c1.479,0.709,1.594,0.738,1.601,0.904C70.387,6.4,69.244,6.849,68.552,6.798"/>
</g>
<g>
	<path fill="#7C5641" d="M36.958,18.546c0,10.002-8.109,18.112-18.111,18.112c-10.003,0-18.112-8.11-18.112-18.112
		c0-10.003,8.109-18.111,18.112-18.111C28.849,0.435,36.958,8.543,36.958,18.546"/>
	<path fill-rule="evenodd" clip-rule="evenodd" fill="#FFFFFF" d="M23.743,11.421H13.95c-1.23,0-2.228,0.998-2.228,2.229v9.793
		c0,1.23,0.998,2.228,2.228,2.228h9.793c1.23,0,2.228-0.997,2.228-2.228v-9.793C25.971,12.419,24.974,11.421,23.743,11.421
		 M21.896,13.387c0-0.22,0.179-0.397,0.398-0.397h1.72c0.219,0,0.398,0.178,0.398,0.397v1.721c0,0.219-0.18,0.396-0.398,0.396h-1.72
		c-0.22,0-0.398-0.178-0.398-0.396V13.387z M16.22,17.518c0.411-1.049,1.433-1.793,2.626-1.793c1.194,0,2.216,0.744,2.627,1.793
		c0.126,0.318,0.195,0.666,0.195,1.028c0,1.556-1.266,2.821-2.822,2.821c-1.555,0-2.821-1.266-2.821-2.821
		C16.025,18.184,16.094,17.836,16.22,17.518 M24.462,23.442c0,0.396-0.323,0.719-0.719,0.719H13.95
		c-0.397,0-0.718-0.323-0.718-0.719v-5.925h1.406c-0.08,0.33-0.122,0.674-0.122,1.028c0,2.393,1.938,4.331,4.33,4.331
		c2.394,0,4.331-1.938,4.331-4.331c0-0.354-0.042-0.698-0.123-1.028h1.408V23.442z"/>
</g>
</svg>
