<?xml version="1.0" encoding="utf-8"?>
<!-- Generator: Adobe Illustrator 15.0.0, SVG Export Plug-In . SVG Version: 6.00 Build 0)  -->
<!DOCTYPE svg PUBLIC "-//W3C//DTD SVG 1.1//EN" "http://www.w3.org/Graphics/SVG/1.1/DTD/svg11.dtd">
<svg version="1.1" id="Camada_1" xmlns="http://www.w3.org/2000/svg" xmlns:xlink="http://www.w3.org/1999/xlink" x="0px" y="0px"
	 width="37.693px" height="37.092px" viewBox="0 0 37.693 37.092" enable-background="new 0 0 37.693 37.092" xml:space="preserve">
<g>
	<path fill="#189D0E" d="M-8.15-1.62c0,10.003-8.108,18.11-18.111,18.11S-44.374,8.383-44.374-1.62s8.109-18.11,18.112-18.11
		S-8.15-11.623-8.15-1.62"/>
	<path fill-rule="evenodd" clip-rule="evenodd" fill="#FFFFFF" d="M-33.604,5.762c0.082-0.32,0.154-0.598,0.229-0.874
		c0.243-0.887,0.492-1.771,0.723-2.661c0.033-0.132,0.02-0.308-0.043-0.426c-2.253-4.295,0.07-9.491,4.798-10.6
		c4.292-1.008,8.15,1.89,8.855,5.765c0.733,4.041-1.911,7.88-5.92,8.582c-1.594,0.276-3.117,0.042-4.571-0.667
		c-0.131-0.063-0.313-0.08-0.45-0.047C-31.923,5.32-33.213,5.684-33.604,5.762 M-31.898,4.08c0.729-0.19,1.4-0.359,2.066-0.545
		c0.188-0.053,0.333-0.025,0.5,0.07c1.261,0.729,2.611,0.998,4.054,0.767c3.323-0.532,5.601-3.643,5.092-6.952
		c-0.527-3.433-3.745-5.735-7.146-5.111c-4.112,0.755-6.297,5.34-4.252,8.972c0.228,0.402,0.289,0.733,0.138,1.162
		C-31.628,2.957-31.74,3.495-31.898,4.08"/>
	<path fill-rule="evenodd" clip-rule="evenodd" fill="#FFFFFF" d="M-24.33,1.833c-1.431-0.052-3.707-1.181-5.267-3.889
		C-30.15-3.019-30.07-4.117-29.26-4.87c0.275-0.256,0.618-0.192,0.941-0.139c0.079,0.011,0.161,0.133,0.201,0.223
		c0.208,0.473,0.412,0.946,0.593,1.43c0.096,0.257-0.08,0.496-0.45,0.922c-0.118,0.134-0.142,0.261-0.05,0.416
		c0.601,1.016,1.438,1.751,2.541,2.182c0.162,0.063,0.283,0.023,0.385-0.104c0.585-0.713,0.645-0.921,0.952-0.776
		c1.479,0.709,1.594,0.738,1.601,0.904C-22.495,1.436-23.639,1.884-24.33,1.833"/>
</g>
<g>
	<path fill="#7C5641" d="M-10.322,9.366c0,10.002-8.109,18.112-18.111,18.112c-10.003,0-18.112-8.11-18.112-18.112
		c0-10.003,8.109-18.111,18.112-18.111C-18.432-8.745-10.322-0.637-10.322,9.366"/>
	<path fill-rule="evenodd" clip-rule="evenodd" fill="#FFFFFF" d="M-23.537,2.241h-9.793c-1.23,0-2.228,0.998-2.228,2.229v9.793
		c0,1.23,0.998,2.228,2.228,2.228h9.793c1.23,0,2.228-0.997,2.228-2.228V4.47C-21.31,3.239-22.307,2.241-23.537,2.241
		 M-25.384,4.207c0-0.22,0.179-0.397,0.398-0.397h1.72c0.219,0,0.398,0.178,0.398,0.397v1.721c0,0.219-0.18,0.396-0.398,0.396h-1.72
		c-0.22,0-0.398-0.178-0.398-0.396V4.207z M-31.061,8.338c0.411-1.049,1.433-1.793,2.626-1.793c1.194,0,2.216,0.744,2.627,1.793
		c0.126,0.318,0.195,0.666,0.195,1.028c0,1.556-1.266,2.821-2.822,2.821c-1.555,0-2.821-1.266-2.821-2.821
		C-31.255,9.004-31.187,8.656-31.061,8.338 M-22.818,14.263c0,0.396-0.323,0.719-0.719,0.719h-9.793
		c-0.397,0-0.718-0.323-0.718-0.719V8.338h1.406c-0.08,0.33-0.122,0.674-0.122,1.028c0,2.393,1.938,4.331,4.33,4.331
		c2.394,0,4.331-1.938,4.331-4.331c0-0.354-0.042-0.698-0.123-1.028h1.408V14.263z"/>
</g>
<g>
	<path fill="#FD3832" d="M36.958,18.545c0,10.003-8.108,18.113-18.111,18.113S0.734,28.548,0.734,18.545S8.844,0.434,18.847,0.434
		S36.958,8.542,36.958,18.545"/>
	<path fill="#FFFFFF" d="M17.474,10.622h-0.899l-0.607,2.332l-0.63-2.332H14.4c0.188,0.55,0.383,1.104,0.57,1.654
		c0.284,0.828,0.464,1.452,0.544,1.878v2.404h0.889v-2.404L17.474,10.622z M19.849,15.125v-1.549c0-0.473-0.081-0.819-0.25-1.042
		c-0.222-0.302-0.533-0.454-0.935-0.454c-0.398,0-0.712,0.152-0.934,0.454c-0.17,0.223-0.25,0.569-0.25,1.042v1.549
		c0,0.471,0.08,0.819,0.25,1.041c0.222,0.301,0.535,0.453,0.934,0.453c0.401,0,0.713-0.152,0.935-0.453
		C19.768,15.945,19.849,15.596,19.849,15.125 M19.046,15.277c0,0.409-0.123,0.614-0.382,0.614c-0.258,0-0.383-0.205-0.383-0.614
		v-1.861c0-0.409,0.125-0.613,0.383-0.613c0.259,0,0.382,0.204,0.382,0.613V15.277z M22.813,16.558v-4.424h-0.802v3.382
		c-0.177,0.25-0.346,0.375-0.507,0.375c-0.108,0-0.17-0.063-0.187-0.188c-0.011-0.026-0.011-0.125-0.011-0.313v-3.257h-0.8v3.498
		c0,0.313,0.028,0.524,0.072,0.658c0.079,0.224,0.258,0.329,0.516,0.329c0.292,0,0.598-0.178,0.916-0.544v0.482H22.813z"/>
	<path fill="#FFFFFF" d="M25.182,18.792c-0.16-0.698-0.729-1.213-1.418-1.289c-1.628-0.183-3.276-0.183-4.915-0.183
		c-1.64,0-3.287,0-4.914,0.183c-0.688,0.076-1.26,0.591-1.42,1.289c-0.229,0.995-0.229,2.078-0.229,3.103
		c0,1.023,0,2.108,0.228,3.103c0.16,0.698,0.731,1.213,1.419,1.29c1.627,0.181,3.274,0.182,4.914,0.181
		c1.64,0.001,3.288,0,4.915-0.181c0.688-0.077,1.258-0.592,1.419-1.29c0.229-0.994,0.23-2.079,0.23-3.103
		C25.41,20.87,25.411,19.787,25.182,18.792 M16.028,19.686h-0.95v5.048h-0.883v-5.048h-0.933v-0.828h2.766V19.686z M18.425,24.734
		h-0.794v-0.479c-0.315,0.362-0.615,0.538-0.907,0.538c-0.255,0-0.431-0.104-0.51-0.325c-0.044-0.133-0.071-0.342-0.071-0.65v-3.463
		h0.793v3.225c0,0.185,0,0.282,0.009,0.308c0.019,0.123,0.078,0.186,0.185,0.186c0.159,0,0.326-0.123,0.502-0.371v-3.347h0.794
		V24.734z M21.438,23.42c0,0.405-0.026,0.696-0.08,0.882c-0.105,0.325-0.317,0.491-0.634,0.491c-0.282,0-0.554-0.156-0.819-0.484
		v0.425H19.11v-5.876h0.794v1.92c0.257-0.315,0.527-0.476,0.819-0.476c0.316,0,0.528,0.166,0.634,0.494
		c0.054,0.176,0.08,0.466,0.08,0.88V23.42z M24.432,22.689h-1.586v0.775c0,0.407,0.132,0.608,0.405,0.608
		c0.193,0,0.309-0.106,0.354-0.318c0.008-0.043,0.018-0.219,0.018-0.537h0.81v0.116c0,0.254-0.01,0.431-0.018,0.51
		c-0.026,0.176-0.088,0.336-0.185,0.477c-0.22,0.317-0.545,0.474-0.96,0.474s-0.73-0.149-0.96-0.448
		c-0.168-0.219-0.254-0.564-0.254-1.028v-1.533c0-0.47,0.075-0.812,0.245-1.032c0.229-0.3,0.545-0.449,0.95-0.449
		c0.396,0,0.713,0.149,0.935,0.449c0.165,0.221,0.246,0.563,0.246,1.032V22.689z"/>
</g>
</svg>
