<?xml version="1.0" encoding="utf-8"?>
<!-- Generator: Adobe Illustrator 15.0.0, SVG Export Plug-In . SVG Version: 6.00 Build 0)  -->
<!DOCTYPE svg PUBLIC "-//W3C//DTD SVG 1.1//EN" "http://www.w3.org/Graphics/SVG/1.1/DTD/svg11.dtd">
<svg version="1.1" id="Camada_1" xmlns="http://www.w3.org/2000/svg" xmlns:xlink="http://www.w3.org/1999/xlink" x="0px" y="0px"
	 width="37.693px" height="37.092px" viewBox="0 0 37.693 37.092" enable-background="new 0 0 37.693 37.092" xml:space="preserve">
<g>
	<path fill="#189D0E" d="M-8.15-1.62c0,10.003-8.108,18.11-18.111,18.11S-44.374,8.383-44.374-1.62s8.109-18.11,18.112-18.11
		S-8.15-11.623-8.15-1.62"/>
	<path fill-rule="evenodd" clip-rule="evenodd" fill="#FFFFFF" d="M-33.604,5.762c0.082-0.32,0.154-0.598,0.229-0.874
		c0.243-0.887,0.492-1.771,0.723-2.661c0.033-0.132,0.02-0.308-0.043-0.426c-2.253-4.295,0.07-9.491,4.798-10.6
		c4.292-1.008,8.15,1.89,8.855,5.765c0.733,4.041-1.911,7.88-5.92,8.582c-1.594,0.276-3.117,0.042-4.571-0.667
		c-0.131-0.063-0.313-0.08-0.45-0.047C-31.923,5.32-33.213,5.684-33.604,5.762 M-31.898,4.08c0.729-0.19,1.4-0.359,2.066-0.545
		c0.188-0.053,0.333-0.025,0.5,0.07c1.261,0.729,2.611,0.998,4.054,0.767c3.323-0.532,5.601-3.643,5.092-6.952
		c-0.527-3.433-3.745-5.735-7.146-5.111c-4.112,0.755-6.297,5.34-4.252,8.972c0.228,0.402,0.289,0.733,0.138,1.162
		C-31.628,2.957-31.74,3.495-31.898,4.08"/>
	<path fill-rule="evenodd" clip-rule="evenodd" fill="#FFFFFF" d="M-24.33,1.833c-1.431-0.052-3.707-1.181-5.267-3.889
		C-30.15-3.019-30.07-4.117-29.26-4.87c0.275-0.256,0.618-0.192,0.941-0.139c0.079,0.011,0.161,0.133,0.201,0.223
		c0.208,0.473,0.412,0.946,0.593,1.43c0.096,0.257-0.08,0.496-0.45,0.922c-0.118,0.134-0.142,0.261-0.05,0.416
		c0.601,1.016,1.438,1.751,2.541,2.182c0.162,0.063,0.283,0.023,0.385-0.104c0.585-0.713,0.645-0.921,0.952-0.776
		c1.479,0.709,1.594,0.738,1.601,0.904C-22.495,1.436-23.639,1.884-24.33,1.833"/>
</g>
<g>
	<path fill="#7C5641" d="M-10.322,9.366c0,10.002-8.109,18.112-18.111,18.112c-10.003,0-18.112-8.11-18.112-18.112
		c0-10.003,8.109-18.111,18.112-18.111C-18.432-8.745-10.322-0.637-10.322,9.366"/>
	<path fill-rule="evenodd" clip-rule="evenodd" fill="#FFFFFF" d="M-23.537,2.241h-9.793c-1.23,0-2.228,0.998-2.228,2.229v9.793
		c0,1.23,0.998,2.228,2.228,2.228h9.793c1.23,0,2.228-0.997,2.228-2.228V4.47C-21.31,3.239-22.307,2.241-23.537,2.241
		 M-25.384,4.207c0-0.22,0.179-0.397,0.398-0.397h1.72c0.219,0,0.398,0.178,0.398,0.397v1.721c0,0.219-0.18,0.396-0.398,0.396h-1.72
		c-0.22,0-0.398-0.178-0.398-0.396V4.207z M-31.061,8.338c0.411-1.049,1.433-1.793,2.626-1.793c1.194,0,2.216,0.744,2.627,1.793
		c0.126,0.318,0.195,0.666,0.195,1.028c0,1.556-1.266,2.821-2.822,2.821c-1.555,0-2.821-1.266-2.821-2.821
		C-31.255,9.004-31.187,8.656-31.061,8.338 M-22.818,14.263c0,0.396-0.323,0.719-0.719,0.719h-9.793
		c-0.397,0-0.718-0.323-0.718-0.719V8.338h1.406c-0.08,0.33-0.122,0.674-0.122,1.028c0,2.393,1.938,4.331,4.33,4.331
		c2.394,0,4.331-1.938,4.331-4.331c0-0.354-0.042-0.698-0.123-1.028h1.408V14.263z"/>
</g>
<g>
	<path fill="#FD3832" d="M77.438,0.434c0,10.003-8.108,18.113-18.111,18.113s-18.112-8.11-18.112-18.113s8.109-18.111,18.112-18.111
		S77.438-9.569,77.438,0.434"/>
	<path fill="#FFFFFF" d="M57.954-7.49h-0.899l-0.607,2.332l-0.63-2.332h-0.937c0.188,0.55,0.383,1.104,0.57,1.654
		c0.284,0.828,0.464,1.452,0.544,1.878v2.404h0.889v-2.404L57.954-7.49z M60.329-2.986v-1.549c0-0.473-0.081-0.819-0.25-1.042
		c-0.222-0.302-0.533-0.454-0.935-0.454c-0.398,0-0.712,0.152-0.934,0.454c-0.17,0.223-0.25,0.569-0.25,1.042v1.549
		c0,0.471,0.08,0.819,0.25,1.041c0.222,0.301,0.535,0.453,0.934,0.453c0.401,0,0.713-0.152,0.935-0.453
		C60.248-2.167,60.329-2.516,60.329-2.986 M59.526-2.835c0,0.409-0.123,0.614-0.382,0.614c-0.258,0-0.383-0.205-0.383-0.614v-1.861
		c0-0.409,0.125-0.613,0.383-0.613c0.259,0,0.382,0.204,0.382,0.613V-2.835z M63.293-1.554v-4.424h-0.802v3.382
		c-0.177,0.25-0.346,0.375-0.507,0.375c-0.108,0-0.17-0.063-0.187-0.188c-0.011-0.026-0.011-0.125-0.011-0.313v-3.257h-0.8v3.498
		c0,0.313,0.028,0.524,0.072,0.658c0.079,0.224,0.258,0.329,0.516,0.329c0.292,0,0.598-0.178,0.916-0.544v0.482H63.293z"/>
	<path fill="#FFFFFF" d="M65.662,0.68c-0.16-0.698-0.729-1.213-1.418-1.289c-1.628-0.183-3.276-0.183-4.915-0.183
		c-1.64,0-3.287,0-4.914,0.183c-0.688,0.076-1.26,0.591-1.42,1.289c-0.229,0.995-0.229,2.078-0.229,3.103
		c0,1.023,0,2.108,0.228,3.103c0.16,0.698,0.731,1.213,1.419,1.29c1.627,0.181,3.274,0.182,4.914,0.181
		c1.64,0.001,3.288,0,4.915-0.181c0.688-0.077,1.258-0.592,1.419-1.29c0.229-0.994,0.23-2.079,0.23-3.103
		C65.891,2.758,65.892,1.675,65.662,0.68 M56.509,1.574h-0.95v5.048h-0.883V1.574h-0.933V0.746h2.766V1.574z M58.905,6.622h-0.794
		V6.144c-0.315,0.362-0.615,0.538-0.907,0.538c-0.255,0-0.431-0.104-0.51-0.325c-0.044-0.133-0.071-0.342-0.071-0.65V2.243h0.793
		v3.225c0,0.185,0,0.282,0.009,0.308c0.019,0.123,0.078,0.186,0.185,0.186c0.159,0,0.326-0.123,0.502-0.371V2.243h0.794V6.622z
		 M61.918,5.309c0,0.405-0.026,0.696-0.08,0.882c-0.105,0.325-0.317,0.491-0.634,0.491c-0.282,0-0.554-0.156-0.819-0.484v0.425
		h-0.794V0.746h0.794v1.92c0.257-0.315,0.527-0.476,0.819-0.476c0.316,0,0.528,0.166,0.634,0.494c0.054,0.176,0.08,0.466,0.08,0.88
		V5.309z M64.912,4.577h-1.586v0.775c0,0.407,0.132,0.608,0.405,0.608c0.193,0,0.309-0.106,0.354-0.318
		c0.008-0.043,0.018-0.219,0.018-0.537h0.81v0.116c0,0.254-0.01,0.431-0.018,0.51c-0.026,0.176-0.088,0.336-0.185,0.477
		c-0.22,0.317-0.545,0.474-0.96,0.474s-0.73-0.149-0.96-0.448c-0.168-0.219-0.254-0.564-0.254-1.028V3.672
		c0-0.47,0.075-0.812,0.245-1.032c0.229-0.3,0.545-0.449,0.95-0.449c0.396,0,0.713,0.149,0.935,0.449
		c0.165,0.221,0.246,0.563,0.246,1.032V4.577z"/>
</g>
<g>
	<path fill="#FC5345" d="M36.958,18.546c0,10.003-8.108,18.11-18.111,18.11S0.734,28.549,0.734,18.546S8.844,0.435,18.847,0.435
		S36.958,8.543,36.958,18.546"/>
	<path fill="#FFFFFF" d="M16.605,17.424c-0.002,0.038-0.005,0.068-0.005,0.098c0,0.748,0.001,2.366,0.001,2.366h3.282
		c0,0.244-0.289,1.223-1.204,1.845c-0.538,0.363-1.143,0.531-1.782,0.572c-0.452,0.029-0.896-0.016-1.33-0.154
		c-1.369-0.44-2.39-1.678-2.528-3.187c-0.034-0.372-0.01-0.745,0.074-1.112c0.408-1.784,2.097-3.107,4.033-2.822
		c0.856,0.127,1.352,0.484,1.801,0.869c0.593-0.594,1.18-1.181,1.783-1.786c-0.146-0.106-0.484-0.449-1.087-0.797
		c-0.899-0.52-1.869-0.78-2.907-0.791c-0.195-0.002-0.392,0.009-0.586,0.018c-0.343,0.013-0.679,0.072-1.01,0.157
		c-1.327,0.338-2.428,1.034-3.29,2.098c-0.829,1.021-1.274,2.194-1.356,3.502c-0.035,0.555,0.007,1.108,0.13,1.651
		c0.345,1.519,1.142,2.744,2.398,3.664c0.973,0.713,2.069,1.094,3.272,1.16c0.678,0.037,1.351-0.026,2.011-0.199
		c1.228-0.321,2.248-0.963,3.015-1.983c1.11-1.477,1.379-3.371,1.052-5.169H16.605z"/>
	<polygon fill="#FFFFFF" points="29.786,17.505 27.709,17.505 27.709,15.427 27.709,15.366 27.648,15.366 26.098,15.366 
		26.035,15.366 26.035,15.427 26.035,17.505 23.957,17.505 23.897,17.505 23.897,17.566 23.897,19.117 23.897,19.179 23.957,19.179 
		26.035,19.179 26.035,21.256 26.035,21.318 26.098,21.318 27.648,21.318 27.709,21.318 27.709,21.256 27.709,19.179 29.786,19.179 
		29.849,19.179 29.849,19.117 29.849,17.566 29.849,17.505 	"/>
</g>
</svg>
