<?xml version="1.0" encoding="utf-8"?>
<!-- Generator: Adobe Illustrator 15.0.0, SVG Export Plug-In . SVG Version: 6.00 Build 0)  -->
<!DOCTYPE svg PUBLIC "-//W3C//DTD SVG 1.1//EN" "http://www.w3.org/Graphics/SVG/1.1/DTD/svg11.dtd">
<svg version="1.1" id="Camada_1" xmlns="http://www.w3.org/2000/svg" xmlns:xlink="http://www.w3.org/1999/xlink" x="0px" y="0px"
	 width="643.723px" height="249.958px" viewBox="0 0 643.723 249.958" enable-background="new 0 0 643.723 249.958"
	 xml:space="preserve">
<g opacity="0.5">
	<image overflow="visible" width="667" height="283" xlink:href="AC4735C8.png"  transform="matrix(1 0 0 1 -11.6384 -16.521)">
	</image>
</g>
<g>
	<g>
		<path fill="#90B54C" d="M251.029,552.799c-62.715,7.227-74.276,33.531-74.276,33.531c-7.225,21.963,25.146,19.359,25.146,19.359
			c30.637-4.625,34.104-1.73,34.104-1.73c17.054,4.045,18.787,15.027,18.787,15.027c4.912,26.01-23.703,37.855-23.703,37.855
			c-53.754,22.545-64.738-13.584-64.738-13.584c-3.18-18.207-4.333,0-4.333,0c12.715,39.021,57.114,24.277,57.114,24.277
			c44.407-10.693,43.176-45.664,43.176-45.664c-1.734-31.504-40.752-24.566-40.752-24.566c-21.967,4.336-30.348,1.447-30.348,1.447
			c-22.544-3.471-0.871-21.1-0.871-21.1c29.482-15.896,57.808-16.477,57.808-16.477c23.122,1.158,13.292,12.139,13.292,12.139
			c-0.576,12.43,9.249-2.311,9.249-2.311C277.911,551.934,251.029,552.799,251.029,552.799z"/>
		<path fill="#90B54C" d="M433.112,595.864c0,0-8.378-2.889-9.536-2.889c0,0-5.196-1.156-0.287-3.182
			c0,0,26.589-13.869,22.832-25.143c0,0-3.179-13.301-29.769-9.252c0,0,1.441-3.758,3.758-7.807c0,0,0.287-7.801-6.938-3.178
			l-7.806,13.871c0,0-13.873,3.76-26.01,9.248c0,0-5.203,3.471,0.287,2.891c0,0,18.787-6.645,21.675-6.645
			c0,0-36.993,67.051-40.749,71.676c0,0-2.602,7.227,2.893,4.625c0,0,46.815-73.992,48.844-79.191c0,0,38.15-6.645,25.144,10.693
			c0,0-4.336,7.805-29.477,19.654c0,0-12.427,8.85-0.289,8.904c0,0,47.11-4.568,37.566,33.867c0,0-14.445,45.379-73.406,32.951
			c0,0-14.16-2.314-22.832-16.189c0,0-13.873-17.051,0,10.691c0,0,34.683,27.434,74.854,7.646
			C423.865,669.118,489.76,629.967,433.112,595.864z"/>
		<path fill="#90B54C" d="M723.577,668.411c0,0-14.452,21.387-20.812-1.156c0,0,0.293-12.719,8.095-19.938l-6.937-8.965
			c0,0-3.761-11.27-13.297-3.465c0,0-19.418,27.436-35.549,36.701c0,0-25.723,17.051-26.014-6.354c0,0,22.832-2.027,34.393-23.131
			c0,0,6.068-10.398-16.764-5.484c0,0-19.361,8.092-25.144,26.883c0,0-7.734,14.273-20.232,0.574c0,0-6.069-4.537-0.288-8.771
			c0,0,15.03-3.943,15.03-17.527c0,0-0.867-13.584-19.366-0.867c0,0-11.852,8.092-19.072,16.477c0,0-4.048,10.777-6.069,1.92
			c0,0,2.021-13.48,10.981-25.912c0,0,24.565-25.143,22.832-41.613c0,0-0.287-11.564-6.937-3.473c0,0-13.292,23.123-20.521,37.285
			c0,0-8.385,18.209-24.275,30.063c0,0-33.526,34.102-49.137,15.314c0,0-8.094-15.314,15.317-26.879c0,0,13.584-5.783,21.966-0.578
			c0,0,4.624-0.869,0.866-6.646c0,0-13.872-8.957-37.858,12.426c0,0-7.515,10.986-13.01,14.455c0,0-38.438,26.01-32.367-0.867
			c0,0,19.941-2.889,31.501-19.654c0,0,6.07-8.383-4.914-9.828c0,0-24.275,0-34.102,26.596c0,0-4.915,18.205,13.872,18.783
			c0,0,13.749-0.291,26.818-11.854c0,0,4.974-4.623,4.104,0.289c0,0,2.891,20.098,28.326,13.084c0,0,8.381-1.402,34.392-22.705
			c0,0,4.624-4.539,3.758,1.818c0,0-4.624,9.539-4.049,18.785c0,0,0.87,6.648,5.494,0.578c0,0,24.855-27.455,33.815-31.506
			c0,0,8.957-5.777,6.646,2.316c0,0-7.516,9.535-13.876,11.557c0,0-5.775,5.205-0.287,6.068c0,0,13.293,23.123,30.347,8.961
			c0,0,10.981,19.654,38.729,0c0,0,20.812-16.762,33.526-31.502c0,0,9.247,3.758,4.336,10.115c0,0-10.693,26.145,7.804,30.119
			c0,0,18.786,4.273,23.118-18.85C728.778,662.051,726.471,661.762,723.577,668.411z M632.368,656.196
			c1.733-7.807,18.783-16.764,18.783-16.764c8.962-2.313,6.362,4.045,6.362,4.045c-4.917,9.25-20.813,14.16-20.813,14.16
			C630.345,659.375,632.368,656.196,632.368,656.196z M461.15,651.067c1.733-7.805,18.783-16.766,18.783-16.766
			c8.961-2.309,6.354,4.049,6.354,4.049c-4.909,9.248-20.808,14.164-20.808,14.164C459.126,654.247,461.15,651.067,461.15,651.067z"
			/>
	</g>
	<text transform="matrix(1 0 0 1 467.4905 578.02)" fill="#90B54C" font-family="'Arial-Black'" font-size="28.9189">Cristo é a vida</text>
	<path fill="#90B54C" d="M319.095,659.051c-6.579,2.439-11.212,10.205-8.188,16.998c1.854,4.469,6.529,7.123,11.263,7.178
		c8.109,0.01,14.52-7.197,13.278-15.271c-0.897-4.75-4.299-8.447-9.036-9.531C323.978,657.905,321.414,658.137,319.095,659.051
		 M336.68,637.852c0.185-2.682,2.484-5.83,0.87-8.256c-8.05-4.51-17.476-19.352-23.13-18.869c-5.856,0-17.758,15.518-24.646,19.709
		c-5.957,3.568-12.563,8.287-17.451,0.154c-1.634-2.789-0.966-4.375-2.244-6.207c-7.179-9.4-1.479-17.375-5.438-21.357
		c-3.092-3.348-6.214-4.521-9.887-5.443c-3.563-1.338-3.288-4.576-0.207-6.715c3.667-2.352,9.427-0.064,13.146-1.873
		c1.857-1.67,7.051-2.389,8.315-0.143c0.852,1.375,0,2.859-0.353,4.072c-4.453,8.227,4.081,10.693,5.908,19.051
		c0.148-0.033,0.291-0.033,0.442-0.033c1.259-3.006,2.5-4.176,3.705-7.086c3.398-8.6,8.304-23.918,17.074-27.35v-0.334
		c-2.347-2.029,4.145-14.309,2.75-19.418c-0.256-1.434-0.479-2.826-0.691-4.219c-2.063-1.332-8.271,5.957-9.596,8.061
		c-2.998,6.982-13.579,8.355-15.851,14.037c-0.451,2.373,1.176,3.75-1.471,5.836c0.244,2.883-4.448,5.461-5.662,2.502
		c-1.208-2.314-0.92-6.031,1.245-9.004c0.375-0.73,0.196-1.414,0.693-2.127c5.351-6.721,12.575-17.719,15.136-19.305
		c8.599-20.939,24.092-25.584,34.478-31.617c0.183-1.396-1.151-2.881-1.097-4.102c-0.116-1.98-0.53-3.814,1.504-3.457
		c0-2.557,0.394-6.055,1.65-8.254c1.705-3.916,10.189-4.27,12.629-2.826c1.802,0.838,2.753,2.307,3.522,4.512
		c0.092,0.27,0.123,0.381,0.213,0.477c4.58-2.658,10.797-9.639,11.585-15.059c0.438-2.682-1.289-4.207,1.452-6.613
		c-0.301-3.24,4.574-6.229,5.896-2.908c1.301,2.594,1.057,6.785-1.164,10.166c-0.385,0.834-0.188,1.596-0.701,2.406
		c-5.496,7.67-8.697,22.299-14.508,25.537c-1.373,2.459-3.781,6.762-5.609,10.033c-0.353,1.613-0.175,3.313,0.93,5.074
		c8.281,15.375-4.771,36.311-3.522,53.113c6.429,6.105,14.504,16.684,15.68,25.926c0.646,3.354-0.176,5.596,2.709,9.873
		c1.121,1.75,0.729,5.572,0.229,7.158c-2.159,7.871-4.917,25.777-3.829,34.033c1.934,10.314,12.051,7.662,14.479,12.244
		c1.199,3.531-6.602,3.771-8.603,3.57c-4.722-0.594-4.312-2.273-8.691-1.953c-1.755,0.17-2.878,0.67-4.882,1.057
		c-2.996,0.443-5.73-0.537-5.912-3.188c-0.188-2.506,2.365-4.572,2.998-7.072C342.024,660.088,334.231,650.096,336.68,637.852"/>
</g>
<g>
	<g>
		<path fill="#90B54C" d="M118.45,93.649c-65.637,7.562-77.734,35.086-77.734,35.086c-7.563,22.988,26.313,20.268,26.313,20.268
			c32.063-4.84,35.691-1.813,35.691-1.813c17.847,4.232,19.661,15.729,19.661,15.729c5.143,27.224-24.804,39.623-24.804,39.623
			c-56.261,23.595-67.755-14.215-67.755-14.215c-3.326-19.059-4.536,0-4.536,0c13.31,40.834,59.778,25.404,59.778,25.404
			c46.471-11.189,45.18-47.791,45.18-47.791c-1.813-32.969-42.648-25.709-42.648-25.709c-22.987,4.537-31.761,1.514-31.761,1.514
			c-23.594-3.631-0.906-22.081-0.906-22.081c30.854-16.636,60.495-17.241,60.495-17.241c24.197,1.21,13.914,12.705,13.914,12.705
			c-0.604,13.006,9.68-2.421,9.68-2.421C146.58,92.741,118.45,93.649,118.45,93.649z"/>
		<path fill="#90B54C" d="M309.008,138.717c0,0-8.771-3.023-9.979-3.023c0,0-5.444-1.209-0.303-3.326
			c0,0,27.825-14.52,23.896-26.314c0,0-3.327-13.915-31.154-9.68c0,0,1.513-3.932,3.933-8.167c0,0,0.303-8.167-7.26-3.327
			l-8.167,14.519c0,0-14.52,3.932-27.224,9.679c0,0-5.443,3.629,0.304,3.024c0,0,19.661-6.957,22.687-6.957
			c0,0-38.717,70.174-42.647,75.014c0,0-2.725,7.563,3.022,4.84c0,0,49.001-77.434,51.118-82.878c0,0,39.928-6.957,26.313,11.191
			c0,0-4.537,8.167-30.854,20.568c0,0-13.006,9.265-0.303,9.319c0,0,49.304-4.781,39.321,35.445c0,0-15.124,47.487-76.828,34.48
			c0,0-14.82-2.42-23.896-16.938c0,0-14.52-17.849,0,11.189c0,0,36.297,28.709,78.342,8.003
			C299.33,215.382,368.293,174.411,309.008,138.717z"/>
		<path fill="#90B54C" d="M612.996,214.638c0,0-15.125,22.386-21.779-1.209c0,0,0.305-13.31,8.471-20.871l-7.26-9.377
			c0,0-3.934-11.797-13.914-3.63c0,0-20.318,28.71-37.203,38.415c0,0-26.92,17.847-27.225-6.653c0,0,23.896-2.117,35.994-24.197
			c0,0,6.354-10.892-17.543-5.748c0,0-20.268,8.471-26.314,28.131c0,0-8.094,14.943-21.174,0.605c0,0-6.352-4.748-0.303-9.182
			c0,0,15.73-4.129,15.73-18.346c0,0-0.908-14.219-20.268-0.907c0,0-12.4,8.471-19.963,17.241c0,0-4.234,11.279-6.354,2.012
			c0,0,2.115-14.107,11.492-27.116c0,0,25.711-26.313,23.896-43.558c0,0-0.305-12.099-7.262-3.629c0,0-13.914,24.195-21.477,39.021
			c0,0-8.77,19.058-25.408,31.457c0,0-35.086,35.69-51.42,16.03c0,0-8.469-16.03,16.031-28.131c0,0,14.217-6.051,22.988-0.604
			c0,0,4.84-0.908,0.904-6.957c0,0-14.52-9.377-39.625,13.006c0,0-7.861,11.494-13.607,15.123c0,0-40.23,27.225-33.877-0.906
			c0,0,20.871-3.023,32.969-20.567c0,0,6.354-8.771-5.143-10.283c0,0-25.406,0-35.691,27.827c0,0-5.143,19.057,14.52,19.661
			c0,0,14.393-0.304,28.066-12.399c0,0,5.205-4.841,4.299,0.301c0,0,3.023,21.033,29.645,13.692c0,0,8.771-1.472,35.992-23.765
			c0,0,4.842-4.75,3.934,1.902c0,0-4.838,9.981-4.234,19.662c0,0,0.908,6.957,5.748,0.604c0,0,26.014-28.733,35.393-32.971
			c0,0,9.377-6.051,6.955,2.42c0,0-7.863,9.98-14.52,12.101c0,0-6.051,5.444-0.303,6.354c0,0,13.914,24.196,31.76,9.377
			c0,0,11.494,20.567,40.531,0c0,0,21.775-17.545,35.088-32.972c0,0,9.678,3.935,4.537,10.589c0,0-11.193,27.354,8.166,31.521
			c0,0,19.66,4.472,24.195-19.729C618.44,207.985,616.02,207.683,612.996,214.638z M517.539,201.858
			c1.814-8.168,19.662-17.543,19.662-17.543c9.377-2.42,6.652,4.231,6.652,4.231c-5.145,9.68-21.777,14.821-21.777,14.821
			C515.422,205.183,517.539,201.858,517.539,201.858z M338.348,196.489c1.814-8.166,19.66-17.543,19.66-17.543
			c9.377-2.42,6.654,4.234,6.654,4.234c-5.143,9.68-21.777,14.82-21.777,14.82C336.231,199.819,338.348,196.489,338.348,196.489z"/>
	</g>
	<g enable-background="new    ">
		<path fill="#90B54C" d="M361.627,111.174l5.865,1.773c-0.393,1.646-1.014,3.021-1.861,4.123c-0.848,1.104-1.898,1.938-3.154,2.498
			c-1.258,0.563-2.855,0.842-4.795,0.842c-2.355,0-4.279-0.342-5.771-1.025c-1.494-0.685-2.781-1.889-3.865-3.61
			s-1.625-3.929-1.625-6.616c0-3.584,0.953-6.338,2.859-8.263c1.906-1.925,4.604-2.888,8.09-2.888c2.73,0,4.875,0.552,6.438,1.655
			c1.561,1.104,2.721,2.798,3.479,5.084l-5.91,1.315c-0.207-0.66-0.424-1.144-0.65-1.448c-0.373-0.513-0.832-0.907-1.373-1.183
			c-0.543-0.276-1.148-0.414-1.818-0.414c-1.518,0-2.68,0.61-3.488,1.831c-0.609,0.905-0.916,2.327-0.916,4.265
			c0,2.401,0.365,4.048,1.096,4.938c0.729,0.891,1.754,1.336,3.072,1.336c1.281,0,2.248-0.359,2.904-1.078
			C360.856,113.588,361.33,112.545,361.627,111.174z"/>
		<path fill="#90B54C" d="M369.406,104.348h5.629v2.571c0.543-1.113,1.102-1.879,1.678-2.298s1.289-0.628,2.137-0.628
			c0.887,0,1.855,0.275,2.91,0.827l-1.861,4.286c-0.709-0.297-1.271-0.443-1.686-0.443c-0.789,0-1.398,0.325-1.832,0.977
			c-0.621,0.916-0.932,2.63-0.932,5.143v5.262h-6.043V104.348z"/>
		<path fill="#90B54C" d="M382.002,98.378h6.016v4.093h-6.016V98.378z M382.002,104.348h6.016v15.694h-6.016V104.348z"/>
		<path fill="#90B54C" d="M389.795,115.682l5.973-0.562c0.246,0.709,0.59,1.218,1.031,1.521c0.443,0.307,1.035,0.459,1.773,0.459
			c0.809,0,1.434-0.172,1.877-0.517c0.346-0.256,0.518-0.575,0.518-0.959c0-0.433-0.227-0.768-0.68-1.004
			c-0.324-0.167-1.188-0.373-2.586-0.62c-2.088-0.363-3.539-0.699-4.352-1.011c-0.814-0.31-1.498-0.834-2.055-1.571
			c-0.557-0.738-0.836-1.58-0.836-2.524c0-1.033,0.301-1.925,0.902-2.673c0.6-0.748,1.428-1.307,2.48-1.675
			c1.055-0.369,2.471-0.554,4.242-0.554c1.871,0,3.252,0.143,4.146,0.429c0.891,0.286,1.635,0.729,2.23,1.33
			c0.596,0.602,1.09,1.413,1.484,2.438l-5.705,0.562c-0.146-0.503-0.393-0.871-0.738-1.107c-0.473-0.315-1.045-0.475-1.715-0.475
			c-0.68,0-1.174,0.121-1.482,0.362c-0.311,0.241-0.467,0.533-0.467,0.878c0,0.385,0.195,0.674,0.592,0.87
			c0.395,0.196,1.252,0.374,2.57,0.53c2,0.228,3.486,0.541,4.463,0.945c0.977,0.403,1.723,0.979,2.238,1.728
			c0.52,0.748,0.775,1.569,0.775,2.466c0,0.905-0.273,1.786-0.82,2.643c-0.545,0.856-1.408,1.539-2.586,2.045
			c-1.176,0.508-2.779,0.761-4.811,0.761c-2.865,0-4.908-0.408-6.125-1.228C390.92,118.353,390.141,117.19,389.795,115.682z"/>
		<path fill="#90B54C" d="M415.606,98.378v5.97h3.311v4.405h-3.311v5.56c0,0.669,0.063,1.11,0.189,1.327
			c0.197,0.334,0.543,0.502,1.035,0.502c0.443,0,1.064-0.129,1.861-0.385l0.443,4.152c-1.486,0.325-2.877,0.487-4.168,0.487
			c-1.496,0-2.6-0.191-3.309-0.575c-0.711-0.384-1.234-0.967-1.574-1.749s-0.51-2.049-0.51-3.801v-5.521h-2.217v-4.404h2.217v-2.882
			L415.606,98.378z"/>
		<path fill="#90B54C" d="M420.045,112.239c0-2.395,0.809-4.367,2.424-5.919c1.615-1.552,3.797-2.327,6.547-2.327
			c3.143,0,5.516,0.911,7.121,2.732c1.291,1.47,1.938,3.277,1.938,5.425c0,2.414-0.801,4.392-2.402,5.934
			c-1.6,1.542-3.813,2.313-6.643,2.313c-2.521,0-4.561-0.641-6.117-1.922C421,116.889,420.045,114.811,420.045,112.239z
			 M426.074,112.225c0,1.397,0.283,2.434,0.85,3.104s1.277,1.005,2.135,1.005c0.867,0,1.58-0.329,2.137-0.989
			s0.834-1.721,0.834-3.179c0-1.358-0.281-2.37-0.842-3.036c-0.563-0.664-1.256-0.998-2.084-0.998c-0.877,0-1.602,0.338-2.172,1.014
			C426.36,109.819,426.074,110.846,426.074,112.225z"/>
		<path fill="#90B54C" d="M466.489,113.688H454.43c0.107,0.966,0.369,1.685,0.783,2.156c0.58,0.681,1.34,1.021,2.275,1.021
			c0.59,0,1.152-0.147,1.684-0.442c0.326-0.188,0.678-0.518,1.051-0.99l5.926,0.548c-0.906,1.575-2,2.706-3.279,3.391
			c-1.281,0.687-3.119,1.027-5.514,1.027c-2.078,0-3.713-0.293-4.906-0.88c-1.191-0.586-2.18-1.518-2.963-2.793
			s-1.174-2.775-1.174-4.5c0-2.452,0.783-4.438,2.355-5.955c1.57-1.517,3.74-2.275,6.51-2.275c2.246,0,4.021,0.34,5.32,1.02
			c1.301,0.68,2.291,1.666,2.971,2.957c0.68,1.289,1.02,2.97,1.02,5.039V113.688L466.489,113.688z M460.371,110.805
			c-0.119-1.162-0.432-1.994-0.938-2.496c-0.51-0.504-1.178-0.754-2.004-0.754c-0.955,0-1.721,0.379-2.289,1.138
			c-0.365,0.473-0.598,1.178-0.695,2.112H460.371z M457.178,98.008h5.174l-4.773,4.419h-2.881L457.178,98.008z"/>
		<path fill="#90B54C" d="M482.832,109.432l-5.75-0.606c0.217-1.005,0.529-1.795,0.939-2.371c0.406-0.577,0.998-1.077,1.766-1.5
			c0.551-0.306,1.311-0.542,2.275-0.71c0.965-0.167,2.01-0.251,3.133-0.251c1.803,0,3.252,0.102,4.346,0.303
			c1.094,0.202,2.004,0.623,2.734,1.264c0.512,0.443,0.916,1.07,1.211,1.884s0.441,1.589,0.441,2.328v6.931
			c0,0.739,0.049,1.317,0.143,1.736s0.297,0.953,0.613,1.604h-5.646c-0.227-0.404-0.375-0.712-0.443-0.924s-0.139-0.544-0.207-0.997
			c-0.787,0.759-1.57,1.3-2.35,1.625c-1.063,0.435-2.301,0.65-3.709,0.65c-1.873,0-3.293-0.435-4.264-1.3
			c-0.971-0.867-1.457-1.938-1.457-3.207c0-1.192,0.35-2.174,1.051-2.941c0.699-0.768,1.99-1.34,3.871-1.714
			c2.256-0.453,3.719-0.771,4.389-0.953s1.379-0.421,2.129-0.717c0-0.739-0.152-1.257-0.459-1.552
			c-0.305-0.297-0.842-0.443-1.609-0.443c-0.984,0-1.725,0.158-2.217,0.473C483.377,108.289,483.069,108.752,482.832,109.432z
			 M488.047,112.594c-0.828,0.295-1.689,0.557-2.586,0.783c-1.223,0.324-1.996,0.646-2.318,0.961
			c-0.336,0.324-0.504,0.693-0.504,1.107c0,0.473,0.164,0.859,0.494,1.16s0.814,0.449,1.455,0.449c0.67,0,1.293-0.162,1.869-0.486
			c0.578-0.325,0.986-0.723,1.229-1.189c0.24-0.468,0.361-1.076,0.361-1.824V112.594L488.047,112.594z"/>
		<path fill="#90B54C" d="M503.858,104.348h6.258l3.045,9.946l3.16-9.946h6.068l-6.672,15.694h-5.334L503.858,104.348z"/>
		<path fill="#90B54C" d="M523.34,98.378h6.016v4.093h-6.016V98.378z M523.34,104.348h6.016v15.694h-6.016V104.348z"/>
		<path fill="#90B54C" d="M548.719,98.378v21.664h-5.629v-2.32c-0.789,0.985-1.508,1.65-2.156,1.996
			c-0.867,0.453-1.832,0.68-2.896,0.68c-2.139,0-3.771-0.813-4.898-2.438c-1.129-1.625-1.693-3.601-1.693-5.926
			c0-2.601,0.623-4.591,1.871-5.97c1.246-1.38,2.828-2.069,4.75-2.069c0.936,0,1.785,0.157,2.549,0.473s1.441,0.788,2.033,1.418
			v-7.506L548.719,98.378L548.719,98.378z M542.692,112.151c0-1.23-0.262-2.15-0.783-2.756c-0.521-0.606-1.182-0.909-1.98-0.909
			c-0.699,0-1.285,0.291-1.758,0.872s-0.709,1.557-0.709,2.926c0,1.281,0.242,2.221,0.73,2.814c0.486,0.598,1.092,0.896,1.811,0.896
			c0.77,0,1.408-0.301,1.922-0.901C542.436,114.49,542.692,113.51,542.692,112.151z"/>
		<path fill="#90B54C" d="M556.869,109.432l-5.748-0.606c0.217-1.005,0.529-1.795,0.939-2.371c0.406-0.577,0.996-1.077,1.766-1.5
			c0.551-0.306,1.311-0.542,2.275-0.71c0.965-0.167,2.01-0.251,3.133-0.251c1.803,0,3.252,0.102,4.346,0.303
			c1.092,0.202,2.004,0.623,2.732,1.264c0.512,0.443,0.916,1.07,1.213,1.884c0.295,0.813,0.441,1.589,0.441,2.328v6.931
			c0,0.739,0.049,1.317,0.143,1.736c0.092,0.419,0.297,0.953,0.611,1.604h-5.645c-0.227-0.404-0.375-0.712-0.443-0.924
			s-0.137-0.544-0.207-0.997c-0.787,0.759-1.57,1.3-2.35,1.625c-1.063,0.435-2.301,0.65-3.709,0.65c-1.871,0-3.293-0.435-4.264-1.3
			c-0.971-0.867-1.455-1.938-1.455-3.207c0-1.192,0.35-2.174,1.049-2.941c0.699-0.77,1.99-1.34,3.873-1.714
			c2.256-0.453,3.719-0.771,4.389-0.953s1.379-0.421,2.127-0.717c0-0.739-0.152-1.257-0.457-1.552
			c-0.307-0.297-0.844-0.443-1.611-0.443c-0.984,0-1.725,0.158-2.217,0.473C557.416,108.289,557.106,108.752,556.869,109.432z
			 M562.086,112.594c-0.826,0.295-1.689,0.557-2.586,0.783c-1.221,0.324-1.994,0.646-2.318,0.961
			c-0.336,0.324-0.504,0.693-0.504,1.107c0,0.473,0.164,0.859,0.494,1.16s0.816,0.449,1.457,0.449c0.67,0,1.293-0.162,1.869-0.486
			c0.576-0.325,0.984-0.723,1.227-1.189s0.361-1.076,0.361-1.824V112.594L562.086,112.594z"/>
	</g>
	<path fill="#90B54C" d="M189.679,204.843c-6.884,2.554-11.734,10.685-8.564,17.791c1.939,4.679,6.835,7.455,11.785,7.515
		c8.493,0.008,15.197-7.535,13.898-15.982c-0.942-4.971-4.5-8.842-9.457-9.975C194.793,203.649,192.111,203.886,189.679,204.843
		 M208.088,182.657c0.19-2.807,2.604-6.098,0.909-8.637c-8.425-4.724-18.288-20.256-24.206-19.748
		c-6.133,0-18.585,16.238-25.798,20.625c-6.229,3.734-13.147,8.674-18.262,0.16c-1.708-2.916-1.013-4.576-2.354-6.492
		c-7.511-9.84-1.545-18.188-5.687-22.357c-3.237-3.504-6.505-4.729-10.351-5.692c-3.729-1.399-3.44-4.786-0.218-7.026
		c3.841-2.459,9.866-0.064,13.759-1.959c1.946-1.748,7.379-2.502,8.705-0.15c0.894,1.441,0,2.994-0.369,4.266
		c-4.664,8.607,4.271,11.189,6.184,19.938c0.155-0.035,0.305-0.035,0.464-0.035c1.315-3.143,2.618-4.366,3.877-7.412
		c3.563-9,8.692-25.037,17.874-28.625v-0.349c-2.458-2.125,4.333-14.977,2.875-20.322c-0.269-1.501-0.5-2.959-0.726-4.417
		c-2.157-1.393-8.655,6.237-10.042,8.435c-3.136,7.311-14.214,8.747-16.59,14.693c-0.473,2.48,1.231,3.925-1.538,6.106
		c0.254,3.019-4.655,5.716-5.93,2.62c-1.263-2.421-0.958-6.311,1.306-9.42c0.393-0.77,0.207-1.479,0.729-2.227
		c5.601-7.035,13.16-18.544,15.837-20.207c9-21.91,25.213-26.776,36.085-33.086c0.191-1.465-1.204-3.017-1.149-4.293
		c-0.118-2.067-0.555-3.989,1.574-3.619c0-2.669,0.413-6.332,1.729-8.638c1.785-4.098,10.665-4.46,13.215-2.959
		c1.886,0.877,2.884,2.415,3.69,4.721c0.096,0.283,0.128,0.399,0.223,0.5c4.794-2.785,11.3-10.088,12.126-15.76
		c0.457-2.807-1.354-4.402,1.518-6.919c-0.313-3.395,4.79-6.52,6.168-3.046c1.363,2.713,1.108,7.101-1.219,10.64
		c-0.396,0.87-0.191,1.667-0.731,2.517c-5.751,8.029-9.103,23.339-15.181,26.726c-1.438,2.575-3.959,7.079-5.87,10.502
		c-0.37,1.69-0.187,3.467,0.973,5.309c8.667,16.094-4.994,38.003-3.69,55.591c6.729,6.391,15.184,17.457,16.411,27.131
		c0.676,3.512-0.186,5.854,2.836,10.336c1.172,1.826,0.76,5.83,0.231,7.49c-2.259,8.239-5.146,26.979-4.003,35.616
		c2.022,10.794,12.607,8.021,15.15,12.815c1.254,3.697-6.908,3.943-9.004,3.734c-4.938-0.625-4.508-2.379-9.096-2.045
		c-1.838,0.182-3.014,0.703-5.108,1.107c-3.138,0.465-5.998-0.564-6.188-3.336c-0.199-2.626,2.473-4.787,3.137-7.404
		C213.678,205.931,205.524,195.474,208.088,182.657"/>
</g>
</svg>
