<?xml version="1.0" encoding="utf-8"?>
<!-- Generator: Adobe Illustrator 15.0.0, SVG Export Plug-In . SVG Version: 6.00 Build 0)  -->
<!DOCTYPE svg PUBLIC "-//W3C//DTD SVG 1.1//EN" "http://www.w3.org/Graphics/SVG/1.1/DTD/svg11.dtd">
<svg version="1.1" id="Camada_1" xmlns="http://www.w3.org/2000/svg" xmlns:xlink="http://www.w3.org/1999/xlink" x="0px" y="0px"
	 width="652.467px" height="341.983px" viewBox="0 0 652.467 341.983" enable-background="new 0 0 652.467 341.983"
	 xml:space="preserve">
<g>
	<path fill-rule="evenodd" clip-rule="evenodd" fill="#90B54C" d="M362.162,294.793c-10.243,3.799-17.463,15.897-12.747,26.475
		c2.893,6.961,10.178,11.095,17.539,11.182c12.638,0.011,22.621-11.214,20.689-23.788c-1.403-7.393-6.702-13.156-14.074-14.84
		C369.77,293.012,365.777,293.369,362.162,294.793 M389.553,261.778c0.292-4.177,3.875-9.077,1.36-12.854
		c-12.541-7.025-27.22-30.144-36.026-29.389c-9.12,0-27.646,24.165-38.385,30.695c-9.271,5.558-19.567,12.908-27.177,0.237
		c-2.536-4.339-1.5-6.811-3.497-9.66c-11.182-14.646-2.299-27.068-8.462-33.274c-4.824-5.213-9.681-7.036-15.401-8.472
		c-5.547-2.083-5.126-7.123-0.324-10.458c5.709-3.659,14.678-0.098,20.474-2.914c2.893-2.602,10.977-3.724,12.952-0.228
		c1.327,2.148,0,4.458-0.551,6.347c-6.939,12.811,6.357,16.653,9.207,29.67c0.227-0.055,0.453-0.055,0.69-0.055
		c1.954-4.673,3.896-6.497,5.764-11.03c5.299-13.394,12.94-37.257,26.604-42.6v-0.518c-3.659-3.162,6.438-22.287,4.274-30.241
		c-0.399-2.234-0.745-4.404-1.079-6.573c-3.206-2.072-12.876,9.282-14.938,12.552c-4.673,10.88-21.154,13.017-24.694,21.866
		c-0.701,3.691,1.835,5.839-2.288,9.088c0.378,4.49-6.929,8.505-8.817,3.896c-1.878-3.605-1.425-9.39,1.942-14.021
		c0.583-1.144,0.302-2.201,1.08-3.313c8.332-10.469,19.589-27.597,23.571-30.068c13.394-32.605,37.51-39.848,53.689-49.237
		c0.291-2.18-1.792-4.489-1.705-6.389c-0.184-3.076-0.831-5.937,2.342-5.386c0-3.972,0.615-9.422,2.568-12.854
		c2.655-6.098,15.877-6.638,19.665-4.403c2.806,1.306,4.296,3.594,5.493,7.026c0.141,0.421,0.194,0.593,0.335,0.744
		c7.134-4.145,16.815-15.013,18.046-23.452c0.68-4.178-2.019-6.552,2.255-10.297c-0.464-5.051,7.124-9.703,9.175-4.533
		c2.028,4.037,1.65,10.566-1.813,15.833c-0.583,1.296-0.281,2.482-1.09,3.745c-8.56,11.948-13.546,34.731-22.59,39.771
		c-2.137,3.832-5.893,10.534-8.731,15.629c-0.551,2.515-0.28,5.158,1.446,7.899c12.897,23.95-7.437,56.555-5.493,82.728
		c10.016,9.509,22.589,25.979,24.424,40.376c1.004,5.224-0.28,8.71,4.22,15.38c1.738,2.72,1.123,8.678,0.346,11.149
		c-3.367,12.261-7.663,40.149-5.958,53.003c3.012,16.06,18.758,11.938,22.547,19.071c1.867,5.504-10.286,5.871-13.405,5.559
		c-7.35-0.929-6.702-3.54-13.534-3.044c-2.73,0.27-4.479,1.047-7.598,1.651c-4.674,0.69-8.926-0.842-9.207-4.965
		c-0.302-3.907,3.681-7.123,4.663-11.02C397.875,296.413,385.744,280.849,389.553,261.778"/>
	<path fill="#90B54C" d="M64.285,172.651h4.468l1.144,1.111v0.54c0,2.104-4.479,9.541-13.405,22.319l-0.572,1.662h0.572l3.907,3.335
		l1.068-0.237l-0.043-0.799l12.326-9.735h1.5c1.004,0,1.5,0.745,1.5,2.245l-6.746,9.757h0.745c3.777,0,9.044-3.756,15.769-11.257h3
		l1.511,1.5l-4.231,6.745c0.313,1.134,0.853,1.922,1.403,2.375c7.522-0.043,12.228-4.371,14.527-7.965
		c2.86-3.724,5.559-7.091,8.095-10.081c-6.163,1.878-19.265,3.854-19.265-0.755v-0.659c0.065-2.18,0.723-2.892,1.802-2.579
		c8.753,1.91,15.013-0.863,23.712-2.989c5.332-5.559,9.627-8.948,12.757-10.038c2.925,0.497,4.382,1.23,4.382,2.202
		c0,1.122-1.209,2.946-3.616,5.472c13.653-1.985,19.319-1.985,21.564,1.457c0.324,0.551-1.241,0.713-1.781,0.658
		c-7.879-0.874-15.833-0.302-23.604,1.598c-2.806,2.568-6.432,5.612-10.857,9.131c-6.832,5.969-10.253,10.599-10.253,13.88v2.212
		c0.313,1.446,2.266,2.191,5.85,2.191c2.158-0.961,4.317-1.932,6.486-2.903l-0.032,0.205c1.953-0.637,3.659-1.403,4.576-2.418
		l-0.216-0.366c-0.529-2.3-0.356-4.49,0.496-6.573l3.4-3.767c2.806-2.277,5.224-2.698,6.076-1.23
		c1.9,4.339,0.691,8.234-2.439,11.688l-0.604,0.075l-0.917,1.608l0.497,1.899c1.381,6.498,5.051,0.681,8.947-0.28l0.108-0.032
		c2.094-0.604,5.105-2.482,7.274-6.702c9.746-19.018,16.977-29.033,23.701-29.033c2.946,0.475,4.543,1.263,4.749,2.374v1.177
		c0,3.087-5.925,10.599-17.797,22.524c-6.713,5.807-10.059,10.75-10.059,14.819c0.194,3.551,1.187,5.342,2.957,5.342
		c2.936,0,7.242-3.432,12.93-10.253h2.99c1.425,1.188,2.806,1.77,4.123,1.77c1.133-0.14,2.525-0.571,4.188-1.316
		c0.345-0.626,1.306-1.446,2.86-2.45l5.774-6.433l2.58-1.91h2.558c2.137,1.22,3.195,2.504,3.195,3.854h0.658l5.58,5.504l0.594,0.615
		c7.209-2.816,12.066-5.612,14.581-8.418c11.969-16.114,20.765-25.147,26.356-27.102c2.925,0.508,4.371,1.241,4.371,2.202
		c0,2.525-6.087,8.624-18.294,18.315c-6.821,5.969-10.242,10.599-10.242,13.891v2.213c0.302,1.457,2.256,2.19,5.85,2.19l6.476-2.903
		c-0.291,2.147-0.291,3.022,0.033,2.623c-1.954,1.975-4.36,3.28-7.221,3.939h-4.403c-3.896-1.436-5.85-4.609-5.85-9.509
		l-11.818,6.098c-0.745,3.508-3.605,6.065-8.58,7.674l-1.943,0.637c-4.263,0-7.685-2.579-10.253-7.717l-0.864,0.075
		c-1.003,0.638-2.795,1.296-5.364,1.976l-6.735,0.107c-4.198,5.116-8.516,7.944-12.93,8.473h-1.77
		c-5.299,0.141-7.987-3.81-8.041-11.808c-0.064,0.162-0.162,0.303-0.302,0.433c-2.558,3.442-14.031,5.158-13.783,0.755l-0.432-0.744
		c-1.187-2.029-3.098-2.127-5.731-0.292c-3.195,1.22-5.375,1.846-6.767,2.072c-0.734,0.28-1.489,0.508-2.288,0.69h-4.403
		c-3.886-1.424-5.418-3.626-5.418-8.526c-1.64,1.835-3.691,3.152-5.925,3.939c-0.777,0.67-1.997,1.004-3.67,1.004h-1.5
		c-5.278,0-7.879,0.021-7.879-3.173c-5.396,4.025-10.145,6.022-14.257,6.022c-3,0-3.788-2.213-2.364-6.616
		c-1.565,1.436-2.32,2.137-2.245,2.094h-0.259c-0.453,0.389-0.982,0.647-1.608,0.799l-0.95-0.302
		c1.155,0.896,1.749,2.611,1.749,5.147c-3.443,14.484-8.095,21.759-13.944,21.759h-3.907c-1.986,0-3.292-0.756-3.907-2.277v-1.09
		c0.939-9.768,2.903-17.582,5.871-23.421c-2.903-0.216-4.339-0.637-4.339-1.263v-0.562c4.62-1.759,7.264-4.111,7.922-7.08
		C57.01,181.295,61.834,173.482,64.285,172.651 M225.238,183.594h0.712c0-0.971,0.734-1.445,2.224-1.445v-1.49L225.238,183.594z
		 M183.491,202.752l-1.252,1.921c0.507,3.842,1.349,5.773,2.537,5.773h0.658c3.842-0.669,5.709-2.039,5.58-4.144
		c-1.954-2.796-4.468-4.199-7.523-4.199V202.752z M152.257,191.247v0.572h0.615l8.311-8.883c4.738-5.709,7.112-9.26,7.112-10.663
		C163.276,175.457,157.934,181.792,152.257,191.247 M128.804,194.539l-1.565,0.519l-0.767,0.831l-0.485,2.363l1.198-0.119
		C128.545,196.211,129.085,195.013,128.804,194.539 M117.396,182.515h0.702c0-0.971,0.745-1.446,2.223-1.446v-1.479
		C119.35,180.562,118.368,181.544,117.396,182.515 M61.5,180.464l-7.253,12.833v0.529h0.551l7.814-12.833v-0.529H61.5z
		 M43.67,228.385l2.795,0.518h1.079c3.777-2.115,6.389-5.072,7.825-8.882c1.856-3.065,2.795-5.656,2.795-7.771v-2.806
		c0-2.277-1.867-4.706-5.612-7.274c-3.637,4.09-6.605,12.088-8.882,23.971V228.385z"/>
	<path fill="#90B54C" d="M623.531,196.363c-0.432-0.734-1.111-1.284-2.126-1.533l-3.259-0.787l-3.903,1.662
		c-6.078,4.004-9.209,6.313-9.209,11.731v0.011c-6,0.756-4.813,0.572-4.219-3.087c0.541-3.237,4.032-8.127,11.037-13.879
		c12.034-9.897,18.365-15.791,18.365-18.327c0-0.96-1.42-1.705-4.345-2.19c-5.536,1.932-13.957,10.998-26.002,26.658
		c-0.324-0.528-0.765-1.025-1.413-1.457c-2.881-1.5-6.726-3.216-9.176-2.688c-2.654,0.551-5.159,1.771-9.034,4.048l-1.36,1.37
		c-0.064,0.432-0.136,0.853-0.189,1.263l-2.146,3.238l0.481-1.263v-1.284v-3.8v-1.252l-2.891,3.216h-1.91l-0.199,1.62v0.345
		l-3.012-0.583l-2.812-1.382h-1.414h-2.882h-2.709c-3.713,0-7.608,6-11.721,11h-0.68l3.151-15.102l-1.177-0.898h-0.669l-0.756,0.658
		l-0.604-0.658h-0.658c-2.126,5-4.209,6.439-6.228,8.307c-0.129,3,1.307,3.069,4.296,0.748l-2.406,9.691
		c-0.205,1.791,1.263,2.609,4.425,2.609c2.406-0.313,6.713-4.134,12.887-11.937l5.267,1.581h2.655l1.436,0.541
		c0,1.263,1.684,1.97,5.062,2.391c1.921-0.367,3.562-1.213,4.911-2.455c0.194,4.457,1.878,6.714,5.439,6.443
		c4.824-0.367,8.105-1.563,10.307-3.992l1.976-2.928h0.507c0.064,0,0.13,0.875,0.194,0.918c0.799,5.116,3.972,7.216,8.613,5.727
		c0.366,0.334,0.885,0.891,1.532,1.268c3.497,0.691,5.343-0.074,6.972-0.636l3.67-1.244l4.63,1.479
		c0.95,0.043,6.811-1.54,7.394-3.968l0.582-2.479l-5.795,1.364C622.873,206.206,625.42,199.568,623.531,196.363z M616.034,182.397
		v1.489c-2,0-1.859,3.127-1.859,3.127h-0.713L616.034,182.397z M591.044,205.428l-2.104,1.371l-1.878-0.701l-0.69,0.701
		c-1.953-1.036-2.86-3.551-2.741-7.522c0.906-0.918,2.515-2.536,6.044-2.99l0.863,0.681l0.669-0.681l-0.162,0.681l3.454,0.928
		C596.366,198.403,596.042,200.41,591.044,205.428z M613.537,207.458c-1.306,0.594-3.507,0.658-3.205-1.382
		c3.228-5.763,6.767-7.123,9.584-4.792C620.369,202.806,618.243,204.857,613.537,207.458z"/>
	<path fill="#90B54C" d="M456.782,190.082l0.982,0.064c0.831,0.064,1.489,0.313,2.019,0.767l0,0c0.528,0.464,0.863,1.09,1.015,1.889
		l0.043,0.237l-0.065,0.237l-0.313,1.015c-0.194,0.626-0.701,1.101-1.436,1.468c-0.562,0.291-1.295,0.528-2.115,0.723l-0.485,0.108
		l-0.378-0.313l-1.091-0.906h-0.032l-0.216,0.119c-2.472,1.457-9.519,5.59-11.332,9.152c-0.647,1.295-0.432,2.525,1.403,3.485
		c1.133,0.313,3.313-0.129,5.677-0.96c2.666-0.961,5.482-2.407,7.339-3.843c0.205-1.327,0.745-2.666,1.673-3.95
		c2.213-1.716,4.414-3.41,6.638-5.115l3.055-1.738c0.842,0.055,1.673,0.108,2.515,0.173c1.77,1.35,2.461,2.709,2.083,4.069
		c0.216,0.011,0.421,0.032,0.637,0.043l4.489,4.943l1.943-1.284c5.224-4.08,8.721-6.056,10.49-5.937
		c0.594,0.043,1.166,0.075,1.749,0.119c0.421,0.626,0.831,1.263,1.263,1.889c-0.119,0.41-0.227,0.81-0.335,1.197
		c-1.155,1.328-2.299,2.666-3.454,3.994c0.141,0.205,0.271,0.41,0.41,0.637l0.583,0.032c9.056-5.828,14.581-8.656,16.567-8.526
		c1.921,0.129,2.461,1.77,1.586,4.943c1.662-1.328,8.797-5.073,8.139,0.561c-1.446,1.328-2.602,2.645-3.476,3.972
		c-2.213,3.335,2.201,3.508,4.684,1.576c2.213,6.777-12.692,6.076-11.138,0.421c-2.234,1.641-4.469,3.303-6.691,4.965
		c-1.36-0.098-2.73-0.194-4.08-0.292c-0.421-0.626-0.842-1.263-1.263-1.899c0.108-0.389,0.216-0.788,0.335-1.187
		c0.776-1.36,1.543-2.698,2.32-4.059c-0.918-0.064-4.339,2.32-10.254,7.123c-0.83,0.151-1.661,0.292-2.504,0.453
		c-1.154-0.086-2.32-0.161-3.485-0.237c-0.767-0.064-0.799-2.083-0.108-6.065c-1.273,0.961-2.688,1.694-4.252,2.202
		c-1.738,3.108-4.933,5.072-10.016,6.313c-0.691,0.162-1.382,0.335-2.072,0.496c-3.367-0.237-6.142-2.353-7.404-5.169
		c-1.004,0.68-2.299,1.413-3.724,2.062c-2.504,1.122-5.493,2.147-8.234,2.525l-0.098,0.011l-0.097-0.011l-3.961-0.271l-0.292-0.011
		l-0.248-0.184c-4.673-3.615-4.025-7.425-1.306-10.954c2.385-3.098,6.411-5.904,9.595-8.116c0.626-0.432,1.241-0.853,1.5-1.036
		c0.972-0.69,1.867-1.155,2.645-1.457C455.282,190.146,456.167,190.038,456.782,190.082 M466.56,200.54
		c-0.583,0.615-1.165,1.23-1.759,1.846c-0.562,3.874-0.259,5.86,0.906,5.936c0.216,0.011,0.432,0.032,0.637,0.043
		c3.961-0.409,6.163-1.65,6.627-3.767c-1.144-2.914-3.227-4.511-6.228-4.705C466.679,200.108,466.614,200.324,466.56,200.54"/>
	<path fill="#90B54C" d="M581.083,181.5c2.537,0.421,3.811,1.058,3.811,1.878v1.296c0,1.058-2.115,2.115-6.325,3.151h-1.91
		l-1.889-1.889v-0.626C574.823,184.382,576.928,183.109,581.083,181.5"/>
</g>
</svg>
