<svg xmlns="http://www.w3.org/2000/svg" width="37.693" height="37.092" viewBox="0 0 37.693 37.092"><path fill="#189D0E" d="M36.958 18.546c0 10.003-8.108 18.11-18.111 18.11S.734 28.549.734 18.546 8.843.436 18.846.436s18.112 8.107 18.112 18.11"/><path fill-rule="evenodd" clip-rule="evenodd" fill="#FFF" d="M11.505 25.928c.082-.32.154-.598.229-.874.243-.887.492-1.771.723-2.661a.649.649 0 0 0-.043-.426c-2.253-4.295.07-9.491 4.798-10.6 4.292-1.008 8.15 1.89 8.855 5.765.733 4.041-1.911 7.88-5.92 8.582-1.594.276-3.117.042-4.571-.667a.728.728 0 0 0-.45-.047c-1.94.486-3.23.85-3.621.928m1.705-1.682c.729-.19 1.4-.359 2.066-.545a.596.596 0 0 1 .5.07c1.261.729 2.611.998 4.054.767 3.323-.532 5.601-3.643 5.092-6.952-.527-3.433-3.745-5.735-7.146-5.111-4.112.755-6.297 5.34-4.252 8.972.228.402.289.733.138 1.162-.182.514-.294 1.052-.452 1.637"/><path fill-rule="evenodd" clip-rule="evenodd" fill="#FFF" d="M20.778 21.999c-1.431-.052-3.707-1.181-5.267-3.889-.554-.963-.474-2.062.337-2.814.275-.256.618-.192.941-.139.079.011.161.133.201.223.208.473.412.946.593 1.43.096.257-.08.496-.45.922-.118.134-.142.261-.05.416.601 1.016 1.438 1.751 2.541 2.182.162.063.283.023.385-.104.585-.713.645-.921.952-.776 1.479.709 1.594.738 1.601.904.051 1.248-1.092 1.696-1.784 1.645"/><path fill="#7C5641" d="M-10.322 9.366c0 10.002-8.109 18.112-18.111 18.112-10.003 0-18.112-8.11-18.112-18.112 0-10.003 8.109-18.111 18.112-18.111 10.001 0 18.111 8.108 18.111 18.111"/><path fill-rule="evenodd" clip-rule="evenodd" fill="#FFF" d="M-23.537 2.241h-9.793c-1.23 0-2.228.998-2.228 2.229v9.793c0 1.23.998 2.228 2.228 2.228h9.793c1.23 0 2.228-.997 2.228-2.228V4.47a2.23 2.23 0 0 0-2.228-2.229m-1.847 1.966c0-.22.179-.397.398-.397h1.72c.219 0 .398.178.398.397v1.721c0 .219-.18.396-.398.396h-1.72a.397.397 0 0 1-.398-.396V4.207zm-5.677 4.131a2.823 2.823 0 0 1 2.626-1.793 2.823 2.823 0 0 1 2.822 2.821 2.824 2.824 0 0 1-2.822 2.821 2.825 2.825 0 0 1-2.821-2.821 2.81 2.81 0 0 1 .195-1.028m8.243 5.925a.72.72 0 0 1-.719.719h-9.793a.719.719 0 0 1-.718-.719V8.338h1.406a4.33 4.33 0 0 0 4.208 5.359 4.329 4.329 0 0 0 4.208-5.359h1.408v5.925z"/></svg>