<svg xmlns="http://www.w3.org/2000/svg" width="37.693" height="37.092" viewBox="0 0 37.693 37.092"><path fill="#189D0E" d="M-8.15-1.62c0 10.003-8.108 18.11-18.111 18.11S-44.374 8.383-44.374-1.62s8.109-18.11 18.112-18.11S-8.15-11.623-8.15-1.62"/><path fill-rule="evenodd" clip-rule="evenodd" fill="#FFF" d="M-33.604 5.762c.082-.32.154-.598.229-.874.243-.887.492-1.771.723-2.661a.649.649 0 0 0-.043-.426c-2.253-4.295.07-9.491 4.798-10.6 4.292-1.008 8.15 1.89 8.855 5.765.733 4.041-1.911 7.88-5.92 8.582-1.594.276-3.117.042-4.571-.667a.728.728 0 0 0-.45-.047c-1.94.486-3.23.85-3.621.928m1.706-1.682c.729-.19 1.4-.359 2.066-.545a.596.596 0 0 1 .5.07c1.261.729 2.611.998 4.054.767 3.323-.532 5.601-3.643 5.092-6.952-.527-3.433-3.745-5.735-7.146-5.111-4.112.755-6.297 5.34-4.252 8.972.228.402.289.733.138 1.162-.182.514-.294 1.052-.452 1.637"/><path fill-rule="evenodd" clip-rule="evenodd" fill="#FFF" d="M-24.33 1.833c-1.431-.052-3.707-1.181-5.267-3.889-.553-.963-.473-2.061.337-2.814.275-.256.618-.192.941-.139.079.011.161.133.201.223.208.473.412.946.593 1.43.096.257-.08.496-.45.922-.118.134-.142.261-.05.416.601 1.016 1.438 1.751 2.541 2.182.162.063.283.023.385-.104.585-.713.645-.921.952-.776 1.479.709 1.594.738 1.601.904.051 1.248-1.093 1.696-1.784 1.645"/><path fill="#7C5641" d="M-10.322 9.366c0 10.002-8.109 18.112-18.111 18.112-10.003 0-18.112-8.11-18.112-18.112 0-10.003 8.109-18.111 18.112-18.111 10.001 0 18.111 8.108 18.111 18.111"/><path fill-rule="evenodd" clip-rule="evenodd" fill="#FFF" d="M-23.537 2.241h-9.793c-1.23 0-2.228.998-2.228 2.229v9.793c0 1.23.998 2.228 2.228 2.228h9.793c1.23 0 2.228-.997 2.228-2.228V4.47a2.23 2.23 0 0 0-2.228-2.229m-1.847 1.966c0-.22.179-.397.398-.397h1.72c.219 0 .398.178.398.397v1.721c0 .219-.18.396-.398.396h-1.72a.397.397 0 0 1-.398-.396V4.207zm-5.677 4.131a2.823 2.823 0 0 1 2.626-1.793 2.823 2.823 0 0 1 2.822 2.821 2.824 2.824 0 0 1-2.822 2.821 2.825 2.825 0 0 1-2.821-2.821 2.81 2.81 0 0 1 .195-1.028m8.243 5.925a.72.72 0 0 1-.719.719h-9.793a.719.719 0 0 1-.718-.719V8.338h1.406a4.33 4.33 0 0 0 4.208 5.359 4.329 4.329 0 0 0 4.208-5.359h1.408v5.925z"/><path fill="#FD3832" d="M36.958 18.545c0 10.003-8.108 18.113-18.111 18.113S.734 28.548.734 18.545 8.844.434 18.847.434s18.111 8.108 18.111 18.111"/><path fill="#FFF" d="M17.474 10.622h-.899l-.607 2.332-.63-2.332H14.4c.188.55.383 1.104.57 1.654.284.828.464 1.452.544 1.878v2.404h.889v-2.404l1.071-3.532zm2.375 4.503v-1.549c0-.473-.081-.819-.25-1.042-.222-.302-.533-.454-.935-.454-.398 0-.712.152-.934.454-.17.223-.25.569-.25 1.042v1.549c0 .471.08.819.25 1.041.222.301.535.453.934.453.401 0 .713-.152.935-.453.169-.221.25-.57.25-1.041m-.803.152c0 .409-.123.614-.382.614-.258 0-.383-.205-.383-.614v-1.861c0-.409.125-.613.383-.613.259 0 .382.204.382.613v1.861zm3.767 1.281v-4.424h-.802v3.382c-.177.25-.346.375-.507.375-.108 0-.17-.063-.187-.188-.011-.026-.011-.125-.011-.313v-3.257h-.8v3.498c0 .313.028.524.072.658.079.224.258.329.516.329.292 0 .598-.178.916-.544v.482h.803zm2.369 2.234a1.653 1.653 0 0 0-1.418-1.289c-1.628-.183-3.276-.183-4.915-.183-1.64 0-3.287 0-4.914.183a1.656 1.656 0 0 0-1.42 1.289c-.229.995-.229 2.078-.229 3.103 0 1.023 0 2.108.228 3.103.16.698.731 1.213 1.419 1.29 1.627.181 3.274.182 4.914.181 1.64.001 3.288 0 4.915-.181a1.658 1.658 0 0 0 1.419-1.29c.229-.994.23-2.079.23-3.103-.001-1.025 0-2.108-.229-3.103m-9.154.894h-.95v5.048h-.883v-5.048h-.933v-.828h2.766v.828zm2.397 5.048h-.794v-.479c-.315.362-.615.538-.907.538-.255 0-.431-.104-.51-.325-.044-.133-.071-.342-.071-.65v-3.463h.793v3.225c0 .185 0 .282.009.308.019.123.078.186.185.186.159 0 .326-.123.502-.371v-3.347h.794v4.378zm3.013-1.314c0 .405-.026.696-.08.882-.105.325-.317.491-.634.491-.282 0-.554-.156-.819-.484v.425h-.795v-5.876h.794v1.92c.257-.315.527-.476.819-.476.316 0 .528.166.634.494.054.176.08.466.08.88v1.744zm2.994-.731h-1.586v.775c0 .407.132.608.405.608.193 0 .309-.106.354-.318.008-.043.018-.219.018-.537h.81v.116c0 .254-.01.431-.018.51a1.121 1.121 0 0 1-.185.477c-.22.317-.545.474-.96.474s-.73-.149-.96-.448c-.168-.219-.254-.564-.254-1.028v-1.533c0-.47.075-.812.245-1.032.229-.3.545-.449.95-.449.396 0 .713.149.935.449.165.221.246.563.246 1.032v.904z"/></svg>