<svg xmlns="http://www.w3.org/2000/svg" width="652.467" height="341.983" viewBox="0 0 652.467 341.983"><g fill="#90B54C"><path fill-rule="evenodd" clip-rule="evenodd" d="M362.162 294.793c-10.243 3.799-17.463 15.897-12.747 26.475 2.893 6.961 10.178 11.095 17.539 11.182 12.638.011 22.621-11.214 20.689-23.788-1.403-7.393-6.702-13.156-14.074-14.84-3.799-.81-7.792-.453-11.407.971m27.391-33.015c.292-4.177 3.875-9.077 1.36-12.854-12.541-7.025-27.22-30.144-36.026-29.389-9.12 0-27.646 24.165-38.385 30.695-9.271 5.558-19.567 12.908-27.177.237-2.536-4.339-1.5-6.811-3.497-9.66-11.182-14.646-2.299-27.068-8.462-33.274-4.824-5.213-9.681-7.036-15.401-8.472-5.547-2.083-5.126-7.123-.324-10.458 5.709-3.659 14.678-.098 20.474-2.914 2.893-2.602 10.977-3.724 12.952-.228 1.327 2.148 0 4.458-.551 6.347-6.939 12.811 6.357 16.653 9.207 29.67.227-.055.453-.055.69-.055 1.954-4.673 3.896-6.497 5.764-11.03 5.299-13.394 12.94-37.257 26.604-42.6v-.518c-3.659-3.162 6.438-22.287 4.274-30.241a275.851 275.851 0 0 1-1.079-6.573c-3.206-2.072-12.876 9.282-14.938 12.552-4.673 10.88-21.154 13.017-24.694 21.866-.701 3.691 1.835 5.839-2.288 9.088.378 4.49-6.929 8.505-8.817 3.896-1.878-3.605-1.425-9.39 1.942-14.021.583-1.144.302-2.201 1.08-3.313 8.332-10.469 19.589-27.597 23.571-30.068 13.394-32.605 37.51-39.848 53.689-49.237.291-2.18-1.792-4.489-1.705-6.389-.184-3.076-.831-5.937 2.342-5.386 0-3.972.615-9.422 2.568-12.854 2.655-6.098 15.877-6.638 19.665-4.403 2.806 1.306 4.296 3.594 5.493 7.026.141.421.194.593.335.744 7.134-4.145 16.815-15.013 18.046-23.452.68-4.178-2.019-6.552 2.255-10.297-.464-5.051 7.124-9.703 9.175-4.533 2.028 4.037 1.65 10.566-1.813 15.833-.583 1.296-.281 2.482-1.09 3.745-8.56 11.948-13.546 34.731-22.59 39.771-2.137 3.832-5.893 10.534-8.731 15.629-.551 2.515-.28 5.158 1.446 7.899 12.897 23.95-7.437 56.555-5.493 82.728 10.016 9.509 22.589 25.979 24.424 40.376 1.004 5.224-.28 8.71 4.22 15.38 1.738 2.72 1.123 8.678.346 11.149-3.367 12.261-7.663 40.149-5.958 53.003 3.012 16.06 18.758 11.938 22.547 19.071 1.867 5.504-10.286 5.871-13.405 5.559-7.35-.929-6.702-3.54-13.534-3.044-2.73.27-4.479 1.047-7.598 1.651-4.674.69-8.926-.842-9.207-4.965-.302-3.907 3.681-7.123 4.663-11.02 1.953-18.032-10.178-33.596-6.369-52.667"/><path d="M64.285 172.651h4.468l1.144 1.111v.54c0 2.104-4.479 9.541-13.405 22.319l-.572 1.662h.572l3.907 3.335 1.068-.237-.043-.799 12.326-9.735h1.5c1.004 0 1.5.745 1.5 2.245l-6.746 9.757h.745c3.777 0 9.044-3.756 15.769-11.257h3l1.511 1.5-4.231 6.745c.313 1.134.853 1.922 1.403 2.375 7.522-.043 12.228-4.371 14.527-7.965 2.86-3.724 5.559-7.091 8.095-10.081-6.163 1.878-19.265 3.854-19.265-.755v-.659c.065-2.18.723-2.892 1.802-2.579 8.753 1.91 15.013-.863 23.712-2.989 5.332-5.559 9.627-8.948 12.757-10.038 2.925.497 4.382 1.23 4.382 2.202 0 1.122-1.209 2.946-3.616 5.472 13.653-1.985 19.319-1.985 21.564 1.457.324.551-1.241.713-1.781.658-7.879-.874-15.833-.302-23.604 1.598-2.806 2.568-6.432 5.612-10.857 9.131-6.832 5.969-10.253 10.599-10.253 13.88v2.212c.313 1.446 2.266 2.191 5.85 2.191 2.158-.961 4.317-1.932 6.486-2.903l-.032.205c1.953-.637 3.659-1.403 4.576-2.418l-.216-.366c-.529-2.3-.356-4.49.496-6.573l3.4-3.767c2.806-2.277 5.224-2.698 6.076-1.23 1.9 4.339.691 8.234-2.439 11.688l-.604.075-.917 1.608.497 1.899c1.381 6.498 5.051.681 8.947-.28l.108-.032c2.094-.604 5.105-2.482 7.274-6.702 9.746-19.018 16.977-29.033 23.701-29.033 2.946.475 4.543 1.263 4.749 2.374v1.177c0 3.087-5.925 10.599-17.797 22.524-6.713 5.807-10.059 10.75-10.059 14.819.194 3.551 1.187 5.342 2.957 5.342 2.936 0 7.242-3.432 12.93-10.253h2.99c1.425 1.188 2.806 1.77 4.123 1.77 1.133-.14 2.525-.571 4.188-1.316.345-.626 1.306-1.446 2.86-2.45l5.774-6.433 2.58-1.91h2.558c2.137 1.22 3.195 2.504 3.195 3.854h.658l5.58 5.504.594.615c7.209-2.816 12.066-5.612 14.581-8.418 11.969-16.114 20.765-25.147 26.356-27.102 2.925.508 4.371 1.241 4.371 2.202 0 2.525-6.087 8.624-18.294 18.315-6.821 5.969-10.242 10.599-10.242 13.891v2.213c.302 1.457 2.256 2.19 5.85 2.19l6.476-2.903c-.291 2.147-.291 3.022.033 2.623-1.954 1.975-4.36 3.28-7.221 3.939h-4.403c-3.896-1.436-5.85-4.609-5.85-9.509l-11.818 6.098c-.745 3.508-3.605 6.065-8.58 7.674l-1.943.637c-4.263 0-7.685-2.579-10.253-7.717l-.864.075c-1.003.638-2.795 1.296-5.364 1.976l-6.735.107c-4.198 5.116-8.516 7.944-12.93 8.473h-1.77c-5.299.141-7.987-3.81-8.041-11.808a1.166 1.166 0 0 1-.302.433c-2.558 3.442-14.031 5.158-13.783.755l-.432-.744c-1.187-2.029-3.098-2.127-5.731-.292-3.195 1.22-5.375 1.846-6.767 2.072-.734.28-1.489.508-2.288.69H106.4c-3.886-1.424-5.418-3.626-5.418-8.526-1.64 1.835-3.691 3.152-5.925 3.939-.777.67-1.997 1.004-3.67 1.004h-1.5c-5.278 0-7.879.021-7.879-3.173-5.396 4.025-10.145 6.022-14.257 6.022-3 0-3.788-2.213-2.364-6.616-1.565 1.436-2.32 2.137-2.245 2.094h-.259c-.453.389-.982.647-1.608.799l-.95-.302c1.155.896 1.749 2.611 1.749 5.147-3.443 14.484-8.095 21.759-13.944 21.759h-3.907c-1.986 0-3.292-.756-3.907-2.277v-1.09c.939-9.768 2.903-17.582 5.871-23.421-2.903-.216-4.339-.637-4.339-1.263v-.562c4.62-1.759 7.264-4.111 7.922-7.08 7.24-14.764 12.064-22.577 14.515-23.408m160.953 10.943h.712c0-.971.734-1.445 2.224-1.445v-1.49l-2.936 2.935zm-41.747 19.158l-1.252 1.921c.507 3.842 1.349 5.773 2.537 5.773h.658c3.842-.669 5.709-2.039 5.58-4.144-1.954-2.796-4.468-4.199-7.523-4.199v.649zm-31.234-11.505v.572h.615l8.311-8.883c4.738-5.709 7.112-9.26 7.112-10.663-5.019 3.184-10.361 9.519-16.038 18.974m-23.453 3.292l-1.565.519-.767.831-.485 2.363 1.198-.119c1.36-1.922 1.9-3.12 1.619-3.594m-11.408-12.024h.702c0-.971.745-1.446 2.223-1.446v-1.479l-2.925 2.925M61.5 180.464l-7.253 12.833v.529h.551l7.814-12.833v-.529H61.5zm-17.83 47.921l2.795.518h1.079c3.777-2.115 6.389-5.072 7.825-8.882 1.856-3.065 2.795-5.656 2.795-7.771v-2.806c0-2.277-1.867-4.706-5.612-7.274-3.637 4.09-6.605 12.088-8.882 23.971v2.244zm579.861-32.022c-.432-.734-1.111-1.284-2.126-1.533l-3.259-.787-3.903 1.662c-6.078 4.004-9.209 6.313-9.209 11.731v.011c-6 .756-4.813.572-4.219-3.087.541-3.237 4.032-8.127 11.037-13.879 12.034-9.897 18.365-15.791 18.365-18.327 0-.96-1.42-1.705-4.345-2.19-5.536 1.932-13.957 10.998-26.002 26.658a4.627 4.627 0 0 0-1.413-1.457c-2.881-1.5-6.726-3.216-9.176-2.688-2.654.551-5.159 1.771-9.034 4.048l-1.36 1.37c-.064.432-.136.853-.189 1.263l-2.146 3.238.481-1.263v-6.336l-2.891 3.216h-1.91l-.199 1.62v.345l-3.012-.583-2.812-1.382h-7.005c-3.713 0-7.608 6-11.721 11h-.68l3.151-15.102-1.177-.898h-.669l-.756.658-.604-.658h-.658c-2.126 5-4.209 6.439-6.228 8.307-.129 3 1.307 3.069 4.296.748l-2.406 9.691c-.205 1.791 1.263 2.609 4.425 2.609 2.406-.313 6.713-4.134 12.887-11.937l5.267 1.581h2.655l1.436.541c0 1.263 1.684 1.97 5.062 2.391 1.921-.367 3.562-1.213 4.911-2.455.194 4.457 1.878 6.714 5.439 6.443 4.824-.367 8.105-1.563 10.307-3.992l1.976-2.928h.507c.064 0 .13.875.194.918.799 5.116 3.972 7.216 8.613 5.727.366.334.885.891 1.532 1.268 3.497.691 5.343-.074 6.972-.636l3.67-1.244 4.63 1.479c.95.043 6.811-1.54 7.394-3.968l.582-2.479-5.795 1.364c-1.543-.235 1.004-6.873-.885-10.078zm-7.497-13.966v1.489c-2 0-1.859 3.127-1.859 3.127h-.713l2.572-4.616zm-24.99 23.031l-2.104 1.371-1.878-.701-.69.701c-1.953-1.036-2.86-3.551-2.741-7.522.906-.918 2.515-2.536 6.044-2.99l.863.681.669-.681-.162.681 3.454.928c1.867.507 1.543 2.514-3.455 7.532zm22.493 2.03c-1.306.594-3.507.658-3.205-1.382 3.228-5.763 6.767-7.123 9.584-4.792.453 1.522-1.673 3.573-6.379 6.174zm-156.755-17.376l.982.064c.831.064 1.489.313 2.019.767.528.464.863 1.09 1.015 1.889l.043.237-.065.237-.313 1.015c-.194.626-.701 1.101-1.436 1.468-.562.291-1.295.528-2.115.723l-.485.108-.378-.313-1.091-.906h-.032l-.216.119c-2.472 1.457-9.519 5.59-11.332 9.152-.647 1.295-.432 2.525 1.403 3.485 1.133.313 3.313-.129 5.677-.96 2.666-.961 5.482-2.407 7.339-3.843.205-1.327.745-2.666 1.673-3.95 2.213-1.716 4.414-3.41 6.638-5.115l3.055-1.738c.842.055 1.673.108 2.515.173 1.77 1.35 2.461 2.709 2.083 4.069.216.011.421.032.637.043l4.489 4.943 1.943-1.284c5.224-4.08 8.721-6.056 10.49-5.937.594.043 1.166.075 1.749.119.421.626.831 1.263 1.263 1.889-.119.41-.227.81-.335 1.197-1.155 1.328-2.299 2.666-3.454 3.994.141.205.271.41.41.637l.583.032c9.056-5.828 14.581-8.656 16.567-8.526 1.921.129 2.461 1.77 1.586 4.943 1.662-1.328 8.797-5.073 8.139.561-1.446 1.328-2.602 2.645-3.476 3.972-2.213 3.335 2.201 3.508 4.684 1.576 2.213 6.777-12.692 6.076-11.138.421a963.578 963.578 0 0 0-6.691 4.965c-1.36-.098-2.73-.194-4.08-.292-.421-.626-.842-1.263-1.263-1.899.108-.389.216-.788.335-1.187.776-1.36 1.543-2.698 2.32-4.059-.918-.064-4.339 2.32-10.254 7.123-.83.151-1.661.292-2.504.453-1.154-.086-2.32-.161-3.485-.237-.767-.064-.799-2.083-.108-6.065a14.356 14.356 0 0 1-4.252 2.202c-1.738 3.108-4.933 5.072-10.016 6.313-.691.162-1.382.335-2.072.496a8.807 8.807 0 0 1-7.404-5.169 26.083 26.083 0 0 1-3.724 2.062c-2.504 1.122-5.493 2.147-8.234 2.525l-.098.011-.097-.011-3.961-.271-.292-.011-.248-.184c-4.673-3.615-4.025-7.425-1.306-10.954 2.385-3.098 6.411-5.904 9.595-8.116.626-.432 1.241-.853 1.5-1.036.972-.69 1.867-1.155 2.645-1.457 1.078-.399 1.963-.507 2.578-.463m9.778 10.458c-.583.615-1.165 1.23-1.759 1.846-.562 3.874-.259 5.86.906 5.936.216.011.432.032.637.043 3.961-.409 6.163-1.65 6.627-3.767-1.144-2.914-3.227-4.511-6.228-4.705-.064.215-.129.431-.183.647"/><path d="M581.083 181.5c2.537.421 3.811 1.058 3.811 1.878v1.296c0 1.058-2.115 2.115-6.325 3.151h-1.91l-1.889-1.889v-.626c.053-.928 2.158-2.201 6.313-3.81"/></g></svg>