<svg xmlns="http://www.w3.org/2000/svg" xmlns:xlink="http://www.w3.org/1999/xlink" width="643.723" height="249.958" viewBox="0 0 643.723 249.958"><image overflow="visible" width="667" height="283" xlink:href="AC4735C8.png" transform="translate(-11.638 -16.521)" opacity=".5"/><g fill="#90B54C"><path d="M251.029 552.799c-62.715 7.227-74.276 33.531-74.276 33.531-7.225 21.963 25.146 19.359 25.146 19.359 30.637-4.625 34.104-1.73 34.104-1.73 17.054 4.045 18.787 15.027 18.787 15.027 4.912 26.01-23.703 37.855-23.703 37.855-53.754 22.545-64.738-13.584-64.738-13.584-3.18-18.207-4.333 0-4.333 0 12.715 39.021 57.114 24.277 57.114 24.277 44.407-10.693 43.176-45.664 43.176-45.664-1.734-31.504-40.752-24.566-40.752-24.566-21.967 4.336-30.348 1.447-30.348 1.447-22.544-3.471-.871-21.1-.871-21.1 29.482-15.896 57.808-16.477 57.808-16.477 23.122 1.158 13.292 12.139 13.292 12.139-.576 12.43 9.249-2.311 9.249-2.311 7.227-19.068-19.655-18.203-19.655-18.203zm182.083 43.065s-8.378-2.889-9.536-2.889c0 0-5.196-1.156-.287-3.182 0 0 26.589-13.869 22.832-25.143 0 0-3.179-13.301-29.769-9.252 0 0 1.441-3.758 3.758-7.807 0 0 .287-7.801-6.938-3.178l-7.806 13.871s-13.873 3.76-26.01 9.248c0 0-5.203 3.471.287 2.891 0 0 18.787-6.645 21.675-6.645 0 0-36.993 67.051-40.749 71.676 0 0-2.602 7.227 2.893 4.625 0 0 46.815-73.992 48.844-79.191 0 0 38.15-6.645 25.144 10.693 0 0-4.336 7.805-29.477 19.654 0 0-12.427 8.85-.289 8.904 0 0 47.11-4.568 37.566 33.867 0 0-14.445 45.379-73.406 32.951 0 0-14.16-2.314-22.832-16.189 0 0-13.873-17.051 0 10.691 0 0 34.683 27.434 74.854 7.646-.001.013 65.894-39.138 9.246-73.241z"/><path d="M723.577 668.411s-14.452 21.387-20.812-1.156c0 0 .293-12.719 8.095-19.938l-6.937-8.965s-3.761-11.27-13.297-3.465c0 0-19.418 27.436-35.549 36.701 0 0-25.723 17.051-26.014-6.354 0 0 22.832-2.027 34.393-23.131 0 0 6.068-10.398-16.764-5.484 0 0-19.361 8.092-25.144 26.883 0 0-7.734 14.273-20.232.574 0 0-6.069-4.537-.288-8.771 0 0 15.03-3.943 15.03-17.527 0 0-.867-13.584-19.366-.867 0 0-11.852 8.092-19.072 16.477 0 0-4.048 10.777-6.069 1.92 0 0 2.021-13.48 10.981-25.912 0 0 24.565-25.143 22.832-41.613 0 0-.287-11.564-6.937-3.473 0 0-13.292 23.123-20.521 37.285 0 0-8.385 18.209-24.275 30.063 0 0-33.526 34.102-49.137 15.314 0 0-8.094-15.314 15.317-26.879 0 0 13.584-5.783 21.966-.578 0 0 4.624-.869.866-6.646 0 0-13.872-8.957-37.858 12.426 0 0-7.515 10.986-13.01 14.455 0 0-38.438 26.01-32.367-.867 0 0 19.941-2.889 31.501-19.654 0 0 6.07-8.383-4.914-9.828 0 0-24.275 0-34.102 26.596 0 0-4.915 18.205 13.872 18.783 0 0 13.749-.291 26.818-11.854 0 0 4.974-4.623 4.104.289 0 0 2.891 20.098 28.326 13.084 0 0 8.381-1.402 34.392-22.705 0 0 4.624-4.539 3.758 1.818 0 0-4.624 9.539-4.049 18.785 0 0 .87 6.648 5.494.578 0 0 24.855-27.455 33.815-31.506 0 0 8.957-5.777 6.646 2.316 0 0-7.516 9.535-13.876 11.557 0 0-5.775 5.205-.287 6.068 0 0 13.293 23.123 30.347 8.961 0 0 10.981 19.654 38.729 0 0 0 20.812-16.762 33.526-31.502 0 0 9.247 3.758 4.336 10.115 0 0-10.693 26.145 7.804 30.119 0 0 18.786 4.273 23.118-18.85.012-.002-2.295-.291-5.189 6.358zm-91.209-12.215c1.733-7.807 18.783-16.764 18.783-16.764 8.962-2.313 6.362 4.045 6.362 4.045-4.917 9.25-20.813 14.16-20.813 14.16-6.355 1.738-4.332-1.441-4.332-1.441zm-171.218-5.129c1.733-7.805 18.783-16.766 18.783-16.766 8.961-2.309 6.354 4.049 6.354 4.049-4.909 9.248-20.808 14.164-20.808 14.164-6.353 1.733-4.329-1.447-4.329-1.447z"/><text transform="translate(467.49 578.02)" font-family="'Arial-Black'" font-size="28.919">Cristo é a vida</text><path d="M319.095 659.051c-6.579 2.439-11.212 10.205-8.188 16.998 1.854 4.469 6.529 7.123 11.263 7.178 8.109.01 14.52-7.197 13.278-15.271-.897-4.75-4.299-8.447-9.036-9.531a12.766 12.766 0 0 0-7.317.626m17.585-21.199c.185-2.682 2.484-5.83.87-8.256-8.05-4.51-17.476-19.352-23.13-18.869-5.856 0-17.758 15.518-24.646 19.709-5.957 3.568-12.563 8.287-17.451.154-1.634-2.789-.966-4.375-2.244-6.207-7.179-9.4-1.479-17.375-5.438-21.357-3.092-3.348-6.214-4.521-9.887-5.443-3.563-1.338-3.288-4.576-.207-6.715 3.667-2.352 9.427-.064 13.146-1.873 1.857-1.67 7.051-2.389 8.315-.143.852 1.375 0 2.859-.353 4.072-4.453 8.227 4.081 10.693 5.908 19.051.148-.033.291-.033.442-.033 1.259-3.006 2.5-4.176 3.705-7.086 3.398-8.6 8.304-23.918 17.074-27.35v-.334c-2.347-2.029 4.145-14.309 2.75-19.418a165.576 165.576 0 0 1-.691-4.219c-2.063-1.332-8.271 5.957-9.596 8.061-2.998 6.982-13.579 8.355-15.851 14.037-.451 2.373 1.176 3.75-1.471 5.836.244 2.883-4.448 5.461-5.662 2.502-1.208-2.314-.92-6.031 1.245-9.004.375-.73.196-1.414.693-2.127 5.351-6.721 12.575-17.719 15.136-19.305 8.599-20.939 24.092-25.584 34.478-31.617.183-1.396-1.151-2.881-1.097-4.102-.116-1.98-.53-3.814 1.504-3.457 0-2.557.394-6.055 1.65-8.254 1.705-3.916 10.189-4.27 12.629-2.826 1.802.838 2.753 2.307 3.522 4.512.092.27.123.381.213.477 4.58-2.658 10.797-9.639 11.585-15.059.438-2.682-1.289-4.207 1.452-6.613-.301-3.24 4.574-6.229 5.896-2.908 1.301 2.594 1.057 6.785-1.164 10.166-.385.834-.188 1.596-.701 2.406-5.496 7.67-8.697 22.299-14.508 25.537-1.373 2.459-3.781 6.762-5.609 10.033-.353 1.613-.175 3.313.93 5.074 8.281 15.375-4.771 36.311-3.522 53.113 6.429 6.105 14.504 16.684 15.68 25.926.646 3.354-.176 5.596 2.709 9.873 1.121 1.75.729 5.572.229 7.158-2.159 7.871-4.917 25.777-3.829 34.033 1.934 10.314 12.051 7.662 14.479 12.244 1.199 3.531-6.602 3.771-8.603 3.57-4.722-.594-4.312-2.273-8.691-1.953-1.755.17-2.878.67-4.882 1.057-2.996.443-5.73-.537-5.912-3.188-.188-2.506 2.365-4.572 2.998-7.072 1.251-11.577-6.542-21.569-4.093-33.813"/></g><g fill="#90B54C"><path d="M118.45 93.649c-65.637 7.562-77.734 35.086-77.734 35.086-7.563 22.988 26.313 20.268 26.313 20.268 32.063-4.84 35.691-1.813 35.691-1.813 17.847 4.232 19.661 15.729 19.661 15.729 5.143 27.224-24.804 39.623-24.804 39.623-56.261 23.595-67.755-14.215-67.755-14.215-3.326-19.059-4.536 0-4.536 0 13.31 40.834 59.778 25.404 59.778 25.404 46.471-11.189 45.18-47.791 45.18-47.791-1.813-32.969-42.648-25.709-42.648-25.709-22.987 4.537-31.761 1.514-31.761 1.514-23.594-3.631-.906-22.081-.906-22.081 30.854-16.636 60.495-17.241 60.495-17.241 24.197 1.21 13.914 12.705 13.914 12.705-.604 13.006 9.68-2.421 9.68-2.421 7.562-19.966-20.568-19.058-20.568-19.058zm190.558 45.068s-8.771-3.023-9.979-3.023c0 0-5.444-1.209-.303-3.326 0 0 27.825-14.52 23.896-26.314 0 0-3.327-13.915-31.154-9.68 0 0 1.513-3.932 3.933-8.167 0 0 .303-8.167-7.26-3.327l-8.167 14.519s-14.52 3.932-27.224 9.679c0 0-5.443 3.629.304 3.024 0 0 19.661-6.957 22.687-6.957 0 0-38.717 70.174-42.647 75.014 0 0-2.725 7.563 3.022 4.84 0 0 49.001-77.434 51.118-82.878 0 0 39.928-6.957 26.313 11.191 0 0-4.537 8.167-30.854 20.568 0 0-13.006 9.265-.303 9.319 0 0 49.304-4.781 39.321 35.445 0 0-15.124 47.487-76.828 34.48 0 0-14.82-2.42-23.896-16.938 0 0-14.52-17.849 0 11.189 0 0 36.297 28.709 78.342 8.003.001.004 68.964-40.967 9.679-76.661z"/><path d="M612.996 214.638s-15.125 22.386-21.779-1.209c0 0 .305-13.31 8.471-20.871l-7.26-9.377s-3.934-11.797-13.914-3.63c0 0-20.318 28.71-37.203 38.415 0 0-26.92 17.847-27.225-6.653 0 0 23.896-2.117 35.994-24.197 0 0 6.354-10.892-17.543-5.748 0 0-20.268 8.471-26.314 28.131 0 0-8.094 14.943-21.174.605 0 0-6.352-4.748-.303-9.182 0 0 15.73-4.129 15.73-18.346 0 0-.908-14.219-20.268-.907 0 0-12.4 8.471-19.963 17.241 0 0-4.234 11.279-6.354 2.012 0 0 2.115-14.107 11.492-27.116 0 0 25.711-26.313 23.896-43.558 0 0-.305-12.099-7.262-3.629 0 0-13.914 24.195-21.477 39.021 0 0-8.77 19.058-25.408 31.457 0 0-35.086 35.69-51.42 16.03 0 0-8.469-16.03 16.031-28.131 0 0 14.217-6.051 22.988-.604 0 0 4.84-.908.904-6.957 0 0-14.52-9.377-39.625 13.006 0 0-7.861 11.494-13.607 15.123 0 0-40.23 27.225-33.877-.906 0 0 20.871-3.023 32.969-20.567 0 0 6.354-8.771-5.143-10.283 0 0-25.406 0-35.691 27.827 0 0-5.143 19.057 14.52 19.661 0 0 14.393-.304 28.066-12.399 0 0 5.205-4.841 4.299.301 0 0 3.023 21.033 29.645 13.692 0 0 8.771-1.472 35.992-23.765 0 0 4.842-4.75 3.934 1.902 0 0-4.838 9.981-4.234 19.662 0 0 .908 6.957 5.748.604 0 0 26.014-28.733 35.393-32.971 0 0 9.377-6.051 6.955 2.42 0 0-7.863 9.98-14.52 12.101 0 0-6.051 5.444-.303 6.354 0 0 13.914 24.196 31.76 9.377 0 0 11.494 20.567 40.531 0 0 0 21.775-17.545 35.088-32.972 0 0 9.678 3.935 4.537 10.589 0 0-11.193 27.354 8.166 31.521 0 0 19.66 4.472 24.195-19.729.007.002-2.413-.3-5.437 6.655zm-95.457-12.78c1.814-8.168 19.662-17.543 19.662-17.543 9.377-2.42 6.652 4.231 6.652 4.231-5.145 9.68-21.777 14.821-21.777 14.821-6.654 1.816-4.537-1.509-4.537-1.509zm-179.191-5.369c1.814-8.166 19.66-17.543 19.66-17.543 9.377-2.42 6.654 4.234 6.654 4.234-5.143 9.68-21.777 14.82-21.777 14.82-6.654 1.819-4.537-1.511-4.537-1.511zm23.279-85.315l5.865 1.773c-.393 1.646-1.014 3.021-1.861 4.123a8.065 8.065 0 0 1-3.154 2.498c-1.258.563-2.855.842-4.795.842-2.355 0-4.279-.342-5.771-1.025-1.494-.685-2.781-1.889-3.865-3.61s-1.625-3.929-1.625-6.616c0-3.584.953-6.338 2.859-8.263 1.906-1.925 4.604-2.888 8.09-2.888 2.73 0 4.875.552 6.438 1.655 1.561 1.104 2.721 2.798 3.479 5.084l-5.91 1.315c-.207-.66-.424-1.144-.65-1.448a3.84 3.84 0 0 0-1.373-1.183 3.951 3.951 0 0 0-1.818-.414c-1.518 0-2.68.61-3.488 1.831-.609.905-.916 2.327-.916 4.265 0 2.401.365 4.048 1.096 4.938.729.891 1.754 1.336 3.072 1.336 1.281 0 2.248-.359 2.904-1.078.652-.721 1.126-1.764 1.423-3.135zm7.779-6.826h5.629v2.571c.543-1.113 1.102-1.879 1.678-2.298s1.289-.628 2.137-.628c.887 0 1.855.275 2.91.827l-1.861 4.286c-.709-.297-1.271-.443-1.686-.443-.789 0-1.398.325-1.832.977-.621.916-.932 2.63-.932 5.143v5.262h-6.043v-15.697zm12.596-5.97h6.016v4.093h-6.016v-4.093zm0 5.97h6.016v15.694h-6.016v-15.694zm7.793 11.334l5.973-.562c.246.709.59 1.218 1.031 1.521.443.307 1.035.459 1.773.459.809 0 1.434-.172 1.877-.517.346-.256.518-.575.518-.959 0-.433-.227-.768-.68-1.004-.324-.167-1.188-.373-2.586-.62-2.088-.363-3.539-.699-4.352-1.011-.814-.31-1.498-.834-2.055-1.571a4.082 4.082 0 0 1-.836-2.524c0-1.033.301-1.925.902-2.673.6-.748 1.428-1.307 2.48-1.675 1.055-.369 2.471-.554 4.242-.554 1.871 0 3.252.143 4.146.429.891.286 1.635.729 2.23 1.33.596.602 1.09 1.413 1.484 2.438l-5.705.562c-.146-.503-.393-.871-.738-1.107-.473-.315-1.045-.475-1.715-.475-.68 0-1.174.121-1.482.362-.311.241-.467.533-.467.878 0 .385.195.674.592.87.395.196 1.252.374 2.57.53 2 .228 3.486.541 4.463.945.977.403 1.723.979 2.238 1.728a4.22 4.22 0 0 1 .775 2.466c0 .905-.273 1.786-.82 2.643-.545.856-1.408 1.539-2.586 2.045-1.176.508-2.779.761-4.811.761-2.865 0-4.908-.408-6.125-1.228-1.211-.816-1.99-1.979-2.336-3.487zm25.811-17.304v5.97h3.311v4.405h-3.311v5.56c0 .669.063 1.11.189 1.327.197.334.543.502 1.035.502.443 0 1.064-.129 1.861-.385l.443 4.152c-1.486.325-2.877.487-4.168.487-1.496 0-2.6-.191-3.309-.575-.711-.384-1.234-.967-1.574-1.749s-.51-2.049-.51-3.801v-5.521h-2.217v-4.404h2.217v-2.882l6.033-3.086zm4.439 13.861c0-2.395.809-4.367 2.424-5.919 1.615-1.552 3.797-2.327 6.547-2.327 3.143 0 5.516.911 7.121 2.732 1.291 1.47 1.938 3.277 1.938 5.425 0 2.414-.801 4.392-2.402 5.934-1.6 1.542-3.813 2.313-6.643 2.313-2.521 0-4.561-.641-6.117-1.922-1.913-1.586-2.868-3.664-2.868-6.236zm6.029-.014c0 1.397.283 2.434.85 3.104s1.277 1.005 2.135 1.005c.867 0 1.58-.329 2.137-.989s.834-1.721.834-3.179c0-1.358-.281-2.37-.842-3.036-.563-.664-1.256-.998-2.084-.998-.877 0-1.602.338-2.172 1.014-.572.673-.858 1.7-.858 3.079zm40.415 1.463H454.43c.107.966.369 1.685.783 2.156.58.681 1.34 1.021 2.275 1.021.59 0 1.152-.147 1.684-.442.326-.188.678-.518 1.051-.99l5.926.548c-.906 1.575-2 2.706-3.279 3.391-1.281.687-3.119 1.027-5.514 1.027-2.078 0-3.713-.293-4.906-.88-1.191-.586-2.18-1.518-2.963-2.793s-1.174-2.775-1.174-4.5c0-2.452.783-4.438 2.355-5.955 1.57-1.517 3.74-2.275 6.51-2.275 2.246 0 4.021.34 5.32 1.02a6.887 6.887 0 0 1 2.971 2.957c.68 1.289 1.02 2.97 1.02 5.039v.676zm-6.118-2.883c-.119-1.162-.432-1.994-.938-2.496-.51-.504-1.178-.754-2.004-.754-.955 0-1.721.379-2.289 1.138-.365.473-.598 1.178-.695 2.112h5.926zm-3.193-12.797h5.174l-4.773 4.419h-2.881l2.48-4.419zm25.654 11.424l-5.75-.606c.217-1.005.529-1.795.939-2.371.406-.577.998-1.077 1.766-1.5.551-.306 1.311-.542 2.275-.71a18.4 18.4 0 0 1 3.133-.251c1.803 0 3.252.102 4.346.303 1.094.202 2.004.623 2.734 1.264.512.443.916 1.07 1.211 1.884s.441 1.589.441 2.328v6.931c0 .739.049 1.317.143 1.736s.297.953.613 1.604h-5.646c-.227-.404-.375-.712-.443-.924s-.139-.544-.207-.997c-.787.759-1.57 1.3-2.35 1.625-1.063.435-2.301.65-3.709.65-1.873 0-3.293-.435-4.264-1.3-.971-.867-1.457-1.938-1.457-3.207 0-1.192.35-2.174 1.051-2.941.699-.768 1.99-1.34 3.871-1.714 2.256-.453 3.719-.771 4.389-.953s1.379-.421 2.129-.717c0-.739-.152-1.257-.459-1.552-.305-.297-.842-.443-1.609-.443-.984 0-1.725.158-2.217.473-.385.245-.693.708-.93 1.388zm5.215 3.162c-.828.295-1.689.557-2.586.783-1.223.324-1.996.646-2.318.961-.336.324-.504.693-.504 1.107 0 .473.164.859.494 1.16s.814.449 1.455.449a3.75 3.75 0 0 0 1.869-.486c.578-.325.986-.723 1.229-1.189.24-.468.361-1.076.361-1.824v-.961zm15.811-8.246h6.258l3.045 9.946 3.16-9.946h6.068l-6.672 15.694h-5.334l-6.525-15.694zm19.482-5.97h6.016v4.093h-6.016v-4.093zm0 5.97h6.016v15.694h-6.016v-15.694zm25.379-5.97v21.664h-5.629v-2.32c-.789.985-1.508 1.65-2.156 1.996-.867.453-1.832.68-2.896.68-2.139 0-3.771-.813-4.898-2.438-1.129-1.625-1.693-3.601-1.693-5.926 0-2.601.623-4.591 1.871-5.97 1.246-1.38 2.828-2.069 4.75-2.069.936 0 1.785.157 2.549.473s1.441.788 2.033 1.418V98.38l6.069-.002zm-6.027 13.773c0-1.23-.262-2.15-.783-2.756a2.5 2.5 0 0 0-1.98-.909c-.699 0-1.285.291-1.758.872s-.709 1.557-.709 2.926c0 1.281.242 2.221.73 2.814.486.598 1.092.896 1.811.896.77 0 1.408-.301 1.922-.901.511-.603.767-1.583.767-2.942zm14.177-2.719l-5.748-.606c.217-1.005.529-1.795.939-2.371.406-.577.996-1.077 1.766-1.5.551-.306 1.311-.542 2.275-.71a18.4 18.4 0 0 1 3.133-.251c1.803 0 3.252.102 4.346.303 1.092.202 2.004.623 2.732 1.264.512.443.916 1.07 1.213 1.884.295.813.441 1.589.441 2.328v6.931c0 .739.049 1.317.143 1.736.092.419.297.953.611 1.604h-5.645c-.227-.404-.375-.712-.443-.924s-.137-.544-.207-.997c-.787.759-1.57 1.3-2.35 1.625-1.063.435-2.301.65-3.709.65-1.871 0-3.293-.435-4.264-1.3-.971-.867-1.455-1.938-1.455-3.207 0-1.192.35-2.174 1.049-2.941.699-.77 1.99-1.34 3.873-1.714 2.256-.453 3.719-.771 4.389-.953s1.379-.421 2.127-.717c0-.739-.152-1.257-.457-1.552-.307-.297-.844-.443-1.611-.443-.984 0-1.725.158-2.217.473-.384.245-.694.708-.931 1.388zm5.217 3.162c-.826.295-1.689.557-2.586.783-1.221.324-1.994.646-2.318.961-.336.324-.504.693-.504 1.107 0 .473.164.859.494 1.16s.816.449 1.457.449a3.75 3.75 0 0 0 1.869-.486c.576-.325.984-.723 1.227-1.189s.361-1.076.361-1.824v-.961zm-372.407 92.249c-6.884 2.554-11.734 10.685-8.564 17.791 1.939 4.679 6.835 7.455 11.785 7.515 8.493.008 15.197-7.535 13.898-15.982-.942-4.971-4.5-8.842-9.457-9.975a13.383 13.383 0 0 0-7.662.651m18.409-22.186c.19-2.807 2.604-6.098.909-8.637-8.425-4.724-18.288-20.256-24.206-19.748-6.133 0-18.585 16.238-25.798 20.625-6.229 3.734-13.147 8.674-18.262.16-1.708-2.916-1.013-4.576-2.354-6.492-7.511-9.84-1.545-18.188-5.687-22.357-3.237-3.504-6.505-4.729-10.351-5.692-3.729-1.399-3.44-4.786-.218-7.026 3.841-2.459 9.866-.064 13.759-1.959 1.946-1.748 7.379-2.502 8.705-.15.894 1.441 0 2.994-.369 4.266-4.664 8.607 4.271 11.189 6.184 19.938.155-.035.305-.035.464-.035 1.315-3.143 2.618-4.366 3.877-7.412 3.563-9 8.692-25.037 17.874-28.625v-.349c-2.458-2.125 4.333-14.977 2.875-20.322-.269-1.501-.5-2.959-.726-4.417-2.157-1.393-8.655 6.237-10.042 8.435-3.136 7.311-14.214 8.747-16.59 14.693-.473 2.48 1.231 3.925-1.538 6.106.254 3.019-4.655 5.716-5.93 2.62-1.263-2.421-.958-6.311 1.306-9.42.393-.77.207-1.479.729-2.227 5.601-7.035 13.16-18.544 15.837-20.207 9-21.91 25.213-26.776 36.085-33.086.191-1.465-1.204-3.017-1.149-4.293-.118-2.067-.555-3.989 1.574-3.619 0-2.669.413-6.332 1.729-8.638 1.785-4.098 10.665-4.46 13.215-2.959 1.886.877 2.884 2.415 3.69 4.721.096.283.128.399.223.5 4.794-2.785 11.3-10.088 12.126-15.76.457-2.807-1.354-4.402 1.518-6.919-.313-3.395 4.79-6.52 6.168-3.046 1.363 2.713 1.108 7.101-1.219 10.64-.396.87-.191 1.667-.731 2.517-5.751 8.029-9.103 23.339-15.181 26.726-1.438 2.575-3.959 7.079-5.87 10.502-.37 1.69-.187 3.467.973 5.309 8.667 16.094-4.994 38.003-3.69 55.591 6.729 6.391 15.184 17.457 16.411 27.131.676 3.512-.186 5.854 2.836 10.336 1.172 1.826.76 5.83.231 7.49-2.259 8.239-5.146 26.979-4.003 35.616 2.022 10.794 12.607 8.021 15.15 12.815 1.254 3.697-6.908 3.943-9.004 3.734-4.938-.625-4.508-2.379-9.096-2.045-1.838.182-3.014.703-5.108 1.107-3.138.465-5.998-.564-6.188-3.336-.199-2.626 2.473-4.787 3.137-7.404 1.315-12.124-6.839-22.581-4.275-35.398"/></g></svg>